<svg width="30" height="466" viewBox="0 0 30 466" fill="none">
<path d="M16.4149 0.586465C15.6342 -0.194971 14.3679 -0.195612 13.5865 0.58506L0.852229 13.3066C0.0707922 14.0873 0.0701619 15.3536 0.850822 16.1351C1.63148 16.9165 2.89781 16.9171 3.67925 16.1365L14.9986 4.82841L26.3067 16.1477C27.0873 16.9292 28.3537 16.9298 29.1351 16.1491C29.9165 15.3685 29.9172 14.1022 29.1365 13.3207L16.4149 0.586465ZM16.7691 466.004L17 2.00098L13 1.99896L12.7691 466.002L16.7691 466.004Z" fill="#FFF5D7"/>
<mask id="path-2-inside-1_51_108" fill="white">
<ellipse cx="15.5" cy="64" rx="8.5" ry="8"/>
</mask>
<ellipse cx="15.5" cy="64" rx="8.5" ry="8" fill="#FFF5D7"/>
<path d="M11 64C11 60.5073 13.7684 59 15.5 59V85C26.6204 85 37 76.3292 37 64H11ZM15.5 59C17.2316 59 20 60.5073 20 64H-6C-6 76.3292 4.3796 85 15.5 85V59ZM20 64C20 67.4927 17.2316 69 15.5 69V43C4.3796 43 -6 51.6708 -6 64H20ZM15.5 69C13.7684 69 11 67.4927 11 64H37C37 51.6708 26.6204 43 15.5 43V69Z" fill="#050C25" mask="url(#path-2-inside-1_51_108)"/>
<circle cx="15" cy="294" r="6.5" fill="#FFF5D7" stroke="#050C25" stroke-width="3"/>
</svg>
