<svg xmlns="http://www.w3.org/2000/svg"  viewBox="0 0 24 24" width="48px" height="48px"><path fill="#5B5B5B" d="M5.736,13H7.5C7.776,13,8,13.225,8,13.5C8,13.776,8.224,14,8.5,14S9,13.776,9,13.5C9,12.673,8.327,12,7.5,12	H5.736C4.779,12,4,12.779,4,13.736c0,0.661,0.367,1.256,0.959,1.553l2.633,1.316C7.844,16.731,8,16.983,8,17.264	C8,17.67,7.67,18,7.264,18H5.5C5.224,18,5,17.775,5,17.5C5,17.224,4.776,17,4.5,17S4,17.224,4,17.5C4,18.327,4.673,19,5.5,19h1.764	C8.221,19,9,18.221,9,17.264c0-0.661-0.367-1.256-0.959-1.553l-2.633-1.316C5.156,14.269,5,14.017,5,13.736	C5,13.33,5.33,13,5.736,13z"/><path fill="#5B5B5B" d="M17,18v-5.5c0-0.276-0.224-0.5-0.5-0.5S16,12.224,16,12.5v6c0,0.276,0.224,0.5,0.5,0.5h4	c0.276,0,0.5-0.224,0.5-0.5S20.776,18,20.5,18H17z"/><path fill="#5B5B5B" d="M12.5,12c-1.378,0-2.5,1.121-2.5,2.5v2c0,1.379,1.122,2.5,2.5,2.5c0.509,0,0.981-0.154,1.377-0.416	l0.27,0.27C14.244,18.951,14.372,19,14.5,19s0.256-0.049,0.354-0.146c0.195-0.195,0.195-0.512,0-0.707l-0.27-0.27	C14.846,17.481,15,17.009,15,16.5v-2C15,13.121,13.878,12,12.5,12z M13.596,16.889c-0.195-0.195-0.512-0.195-0.707,0	s-0.195,0.512,0,0.707l0.254,0.254C12.947,17.943,12.731,18,12.5,18c-0.827,0-1.5-0.673-1.5-1.5v-2c0-0.827,0.673-1.5,1.5-1.5	s1.5,0.673,1.5,1.5v2c0,0.231-0.057,0.447-0.15,0.643L13.596,16.889z"/><path fill="#5B5B5B" d="M23,10.5c0-0.276-0.224-0.5-0.5-0.5H21V1.5C21,1.224,20.776,1,20.5,1h-11C9.478,1,9.458,1.01,9.436,1.013	C9.414,1.016,9.394,1.019,9.373,1.025C9.289,1.048,9.209,1.084,9.146,1.146l-5,5C4.084,6.209,4.048,6.289,4.025,6.373	c-0.006,0.022-0.01,0.041-0.012,0.063C4.01,6.458,4,6.478,4,6.5V10H2.5C2.224,10,2,10.224,2,10.5v10C2,20.776,2.224,21,2.5,21H4v2.5	C4,23.776,4.224,24,4.5,24h16c0.276,0,0.5-0.224,0.5-0.5V21h1.5c0.276,0,0.5-0.224,0.5-0.5V10.5z M9,2.707V6H5.707L9,2.707z M5,7	h4.5C9.776,7,10,6.776,10,6.5V2h10v8H5V7z M20,23H5v-2h15V23z M22,20H3v-9h19V20z"/></svg>