<?xml version="1.0" encoding="utf-8"?>
<!-- Generator: Adobe Illustrator 27.2.0, SVG Export Plug-In . SVG Version: 6.00 Build 0)  -->
<svg version="1.1" id="Capa_1" xmlns="http://www.w3.org/2000/svg" xmlns:xlink="http://www.w3.org/1999/xlink" x="0px" y="0px"
	 viewBox="0 0 305.8 230.6" style="enable-background:new 0 0 305.8 230.6;" xml:space="preserve">
<style type="text/css">
	.st0{fill:#1D1D1B;stroke:#1D1D1B;stroke-miterlimit:10;}
	.st1{fill:#FFFFFF;stroke:#1D1D1B;stroke-miterlimit:10;}
</style>
<path class="st0" d="M179.8,106.3l-33.3,43.3c-12.9,16.4-17.5,22-17.6,22.1c-4.1,4.8-10.4,7.5-16.7,7.5C102,179.1,97,174.3,94,171
	c-2.5-3-4.1-6.2-4.4-6.5c-1.5-3.1-0.6-6.9,2.1-8.6c2.8-1.7,6-1,7.7,2.3c0,0,1.3,2.2,2.8,4.1c1.7,2.1,4,4.2,10.2,4.2
	c5.6,0.1,10.9-4.4,12.5-10.6c2.2-8.2-2.2-14.4-6.3-19.3c-3.6-4.3-6.5-7.4-10-11.4c-6.2-7.1-8.2-12.5-8.8-18.8l-8.4,10.9
	c-2,2.6-5.8,3.3-8.1,1.1c-2.3-2.4-2.5-6.3-0.6-8.9c5.7-7.6,10.6-13.7,16.6-21.5c4.8-6.1,9.3-12.9,16-16.2c4.4-2.2,9.2-2.8,13.9-2.8
	l22.6,0.2c3.2,0,5.6,2.8,5.6,6.4s-2.6,6.3-5.7,6.3l-2.6,0c2.7,5.9,3.3,13.1,1.4,20.7c-2.1,8.2-5.8,14.6-10.9,19.1
	c-3.7,3.2-8.2,5.2-13.2,6c4.6,4.7,7.6,10,9.5,16.9c0.5-0.7,1.2-1.6,35.6-46.2c2-2.6,5.5-2.9,7.9-0.7
	C181.6,99.9,181.9,103.7,179.8,106.3z M129,81.5c-8.6-0.1-15,3.8-17.5,14c-1.4,5-1.5,10.8,1.3,15.1c2,3,4.9,4.6,8.3,4.6
	c9.4,0.1,15.8-5.4,18.5-16.2C141.7,90.4,138.5,81.6,129,81.5z"/>
<path class="st0" d="M168.1,104.9c2-4.7,5.8-12.4,12.4-17.5c1.8-1.4,3.3-2.3,3.7-2.5c4.2-2.5,9-3.4,13.8-3.4
	c8.1,0.1,15.4,3.5,21.1,10c1.3,1.6,1.8,3.7,1.3,5.8l-1.9,7.9c-0.8,3.3-4.4,5.1-7.4,4.1c-3-0.9-4.4-4.3-3.6-7.5l1.1-4.2
	c-3.1-2.6-6.6-3.9-10.7-3.9c-10.6-0.1-15.5,8.6-18.2,18.5c-1.2,4.4-2.3,8-3.5,13.3c-2.3,10.3,0.3,18.8,12,18.9
	c5.2,0.1,10.6-2,16.4-6.5c2.8-2.1,7.8-7.1,10.3-10.1c2.1-2.4,5.4-2.8,7.9-0.6c2.3,2.2,2.4,5.7,0.5,8.4c-2.1,3.1-7.8,8.8-12.3,12.3
	c-7.5,5.9-15.4,8.6-23,8.5c-4.2,0-8-0.9-11.4-2.5c-3.3-1.6-6.1-3.9-8.2-7c-8.8-13.4-1.1-36.9-1.5-37c-0.1,0,0.7-3,0,0
	C167.5,107.1,167.3,107.8,168.1,104.9z"/>
<path class="st1" d="M172.7,113.9"/>
<path class="st1" d="M172.7,96"/>
<path class="st1" d="M164.1,149.1"/>
</svg>
