<svg width="47" height="42" viewBox="0 0 47 42" fill="none" xmlns="http://www.w3.org/2000/svg">
    <path d="M22.3525 0.776367L17.1992 6.29883L22.3525 11.8242L24.5469 9.77637L22.502 7.58496C29.4839 8.09674 34.9648 13.884 34.9648 21C34.9648 28.4543 28.9543 34.4648 21.5 34.4648L0.49707 34.5L0.50293 37.5L21.5 37.4648C30.5757 37.4648 37.9648 30.0757 37.9648 21C37.9648 12.3907 31.3133 5.31167 22.8828 4.60547L24.5469 2.82422L22.3525 0.776367ZM13.5195 6.60059C8.28453 9.49559 5.0293 15.015 5.0293 21C5.0293 24.975 6.45617 28.65 8.82617 31.5H13.0713C9.99629 29.025 8.0293 25.245 8.0293 21C8.0293 16.11 10.7006 11.5956 14.9756 9.22559L13.5195 6.60059ZM41.6475 30.4775L39.4531 32.5225L41.2988 34.5H35.5537C34.4587 35.655 33.2299 36.66 31.8799 37.5H41.2988L39.4531 39.4775L41.6475 41.5225L46.8008 36L41.6475 30.4775Z" />
</svg>
