<svg width="42" height="42" viewBox="0 0 42 42" fill="none" xmlns="http://www.w3.org/2000/svg">
<g clip-path="url(#clip0_65_884)">
<path d="M9.18788 1.22C6.90515 1.22 5.21683 3.72787 5.29228 6.44787C5.36501 9.06009 5.27003 12.4455 4.59093 15.2044C3.91093 17.9722 2.76 19.7217 0.879997 19.9461V22.4939C2.76 22.7183 3.91093 24.4678 4.59093 27.2356C5.27003 29.9945 5.3641 33.3799 5.29228 35.9921C5.21683 38.7121 6.90515 41.22 9.18788 41.22H32.5757C34.8584 41.22 36.5467 38.7121 36.4713 35.9921C36.3985 33.3799 36.4927 29.9945 37.1708 27.2356C37.8517 24.4679 39 22.7183 40.88 22.4939V19.9461C39 19.7217 37.8517 17.9722 37.1708 15.2044C36.4917 12.4455 36.3985 9.06009 36.4713 6.44787C36.5458 3.72787 34.8566 1.22 32.5739 1.22H9.18788ZM9.18788 3.44222H32.5739C33.2403 3.44222 33.703 3.8487 33.973 4.19092C34.4276 4.76537 34.6758 5.5608 34.6531 6.37191C34.5813 8.9608 34.6572 12.7046 35.429 15.8424C36.1381 18.7268 37.2538 20.3422 38.4102 21.22C37.2547 22.0978 36.139 23.7143 35.429 26.5976C34.6572 29.7354 34.5813 33.4792 34.6531 36.0681C34.6758 36.8792 34.4276 37.6735 33.973 38.2491C33.703 38.5913 33.2403 38.9978 32.5739 38.9978H9.18788C8.52152 38.9978 8.06051 38.5913 7.79051 38.2491C7.33596 37.6746 7.08774 36.8792 7.11047 36.0681C7.18228 33.4792 7.10459 29.7354 6.33277 26.5976C5.62368 23.7143 4.50795 22.0978 3.35159 21.22C4.50795 20.3422 5.62368 18.7257 6.33277 15.8424C7.10459 12.7046 7.18228 8.9608 7.11047 6.37191C7.08774 5.5608 7.33596 4.76537 7.79051 4.19092C8.06051 3.8487 8.52152 3.44222 9.18788 3.44222ZM14.3956 10.812V31.6258H21.4038C23.2247 31.6258 24.7371 31.0835 25.7752 30.0546C26.8152 29.0246 27.3644 27.5264 27.3644 25.7209C27.3644 22.9942 25.7782 20.9446 23.4155 20.6102V20.5776C25.1528 20.211 26.5085 18.2213 26.5085 16.029C26.5085 14.479 26.0215 13.1668 25.0987 12.2335C24.1797 11.3035 22.8883 10.812 21.3665 10.812H14.3956ZM17.1708 13.5355H20.7184C22.6648 13.5355 23.7369 14.5784 23.7369 16.4739C23.736 18.5084 22.4629 19.6293 20.152 19.6293H17.1708V13.5355ZM17.1708 22.1792H20.6936C23.239 22.1792 24.5306 23.3046 24.5306 25.5212C24.5306 27.7357 23.2571 28.9066 20.8498 28.9066H17.1708V22.1792Z" />
</g>
<defs>
<clipPath id="clip0_65_884">
<rect width="41" height="41" fill="none" transform="translate(0.5 0.5)"/>
</clipPath>
</defs>
</svg>
