<svg width="41" height="41" viewBox="0 0 41 41" fill="none" xmlns="http://www.w3.org/2000/svg">
    <path d="M9.18788 0.220001C6.90516 0.220001 5.21683 2.72787 5.29229 5.44787C5.36502 8.06009 5.27003 11.4455 4.59094 14.2044C3.91094 16.9722 2.76 18.7217 0.880001 18.9461V21.4939C2.76 21.7183 3.91094 23.4678 4.59094 26.2356C5.27003 28.9945 5.36411 32.3799 5.29229 34.9921C5.21683 37.7121 6.90516 40.22 9.18788 40.22H32.5757C34.8584 40.22 36.5467 37.7121 36.4713 34.9921C36.3985 32.3799 36.4927 28.9945 37.1708 26.2356C37.8517 23.4679 39 21.7183 40.88 21.4939V18.9461C39 18.7217 37.8517 16.9722 37.1708 14.2044C36.4917 11.4455 36.3985 8.06009 36.4713 5.44787C36.5458 2.72787 34.8566 0.220001 32.5739 0.220001H9.18788ZM9.18788 2.44222H32.5739C33.2403 2.44222 33.703 2.8487 33.973 3.19092C34.4276 3.76537 34.6758 4.5608 34.6531 5.37191C34.5813 7.9608 34.6572 11.7046 35.429 14.8424C36.1381 17.7268 37.2538 19.3422 38.4102 20.22C37.2547 21.0978 36.139 22.7143 35.429 25.5976C34.6572 28.7354 34.5813 32.4792 34.6531 35.0681C34.6758 35.8792 34.4276 36.6735 33.973 37.2491C33.703 37.5913 33.2403 37.9978 32.5739 37.9978H9.18788C8.52152 37.9978 8.06051 37.5913 7.79051 37.2491C7.33597 36.6746 7.08774 35.8792 7.11047 35.0681C7.18229 32.4792 7.10459 28.7354 6.33277 25.5976C5.62368 22.7143 4.50796 21.0978 3.35159 20.22C4.50796 19.3422 5.62368 17.7257 6.33277 14.8424C7.10459 11.7046 7.18229 7.9608 7.11047 5.37191C7.08774 4.5608 7.33597 3.76537 7.79051 3.19092C8.06051 2.8487 8.52152 2.44222 9.18788 2.44222ZM14.3956 9.81201V30.6258H21.4038C23.2247 30.6258 24.7371 30.0835 25.7752 29.0546C26.8152 28.0246 27.3644 26.5264 27.3644 24.7209C27.3644 21.9942 25.7782 19.9446 23.4155 19.6102V19.5776C25.1528 19.211 26.5086 17.2213 26.5086 15.029C26.5086 13.479 26.0215 12.1668 25.0988 11.2335C24.1797 10.3035 22.8883 9.81201 21.3665 9.81201H14.3956ZM17.1708 12.5355H20.7184C22.6648 12.5355 23.7369 13.5784 23.7369 15.4739C23.736 17.5084 22.4629 18.6293 20.152 18.6293H17.1708V12.5355ZM17.1708 21.1792H20.6936C23.239 21.1792 24.5306 22.3046 24.5306 24.5212C24.5306 26.7357 23.2571 27.9066 20.8498 27.9066H17.1708V21.1792Z" />
</svg>
