<svg width="43" height="44" viewBox="0 0 43 44" fill="none" xmlns="http://www.w3.org/2000/svg">
<path d="M5.65688 0C3.25757 0 1.32362 1.94476 1.51279 4.16579L1.84228 8.03417C1.85571 8.25429 1.91636 8.46969 2.02065 8.66775C2.12495 8.8658 2.27079 9.0425 2.44961 9.18748C2.62844 9.33247 2.83665 9.44281 3.06202 9.51204C3.28739 9.58126 3.52538 9.60797 3.76201 9.5906C3.99865 9.57323 4.22917 9.51213 4.44003 9.41088C4.65089 9.30964 4.83786 9.17029 4.98994 9.00101C5.14203 8.83174 5.25617 8.63595 5.32568 8.42514C5.39518 8.21433 5.41864 7.99275 5.39468 7.7734L5.0652 3.90502C5.03577 3.55953 5.28339 3.31022 5.65688 3.31022H37.3431C37.7166 3.31022 37.9642 3.55953 37.9348 3.90502L36.3059 23.0056C36.2875 23.2224 36.3152 23.4404 36.3874 23.6473C36.4597 23.8542 36.5751 24.0458 36.7271 24.2112C36.8792 24.3766 37.0648 24.5126 37.2734 24.6114C37.482 24.7102 37.7095 24.7699 37.9429 24.787C38.1763 24.8041 38.4111 24.7784 38.6338 24.7112C38.8565 24.6441 39.0628 24.5368 39.2409 24.3956C39.419 24.2544 39.5654 24.082 39.6717 23.8882C39.7781 23.6945 39.8423 23.4831 39.8607 23.2663L41.4872 4.16579C41.6764 1.94476 39.7424 0 37.3431 0H5.65688ZM14.017 7.65703C13.7808 7.65393 13.5464 7.69445 13.3273 7.77623C13.1081 7.85802 12.9087 7.97944 12.7405 8.13344C12.5724 8.28743 12.4388 8.47094 12.3477 8.67329C12.2565 8.87564 12.2096 9.09279 12.2096 9.31214C12.2096 9.53148 12.2565 9.74864 12.3477 9.95099C12.4388 10.1533 12.5724 10.3368 12.7405 10.4908C12.9087 10.6448 13.1081 10.7663 13.3273 10.848C13.5464 10.9298 13.7808 10.9703 14.017 10.9672H29.3055L28.9111 18.2105H17.1912C16.955 18.2074 16.7206 18.2479 16.5015 18.3297C16.2823 18.4115 16.0829 18.5329 15.9147 18.6869C15.7466 18.8409 15.613 19.0244 15.5219 19.2268C15.4307 19.4291 15.3838 19.6463 15.3838 19.8656C15.3838 20.0849 15.4307 20.3021 15.5219 20.5045C15.613 20.7068 15.7466 20.8903 15.9147 21.0443C16.0829 21.1983 16.2823 21.3197 16.5015 21.4015C16.7206 21.4833 16.955 21.5238 17.1912 21.5207H28.7301L28.331 28.8416L22.1683 30.8544L15.6969 28.57V27.236C15.7002 27.0167 15.6566 26.7989 15.5685 26.5954C15.4805 26.3919 15.3498 26.2066 15.184 26.0505C15.0181 25.8943 14.8206 25.7702 14.6027 25.6856C14.3848 25.6009 14.151 25.5573 13.9149 25.5573C13.6787 25.5573 13.4449 25.6009 13.2271 25.6856C13.0092 25.7702 12.8116 25.8943 12.6458 26.0505C12.48 26.2066 12.3493 26.3919 12.2612 26.5954C12.1732 26.7989 12.1295 27.0167 12.1329 27.236V29.7122C12.1333 30.0475 12.2433 30.3748 12.4484 30.6507C12.6535 30.9266 12.944 31.1382 13.2814 31.2574L21.5116 34.1646C21.9052 34.304 22.3393 34.3093 22.7367 34.1797L30.642 31.5958C30.9757 31.4866 31.2668 31.2878 31.4783 31.0245C31.6899 30.7612 31.8123 30.4455 31.8301 30.1174L32.366 20.2858C32.4282 20.0658 32.4408 19.8361 32.4032 19.6113L32.96 9.39619C32.9723 9.17205 32.9353 8.94795 32.8514 8.7375C32.7675 8.52704 32.6384 8.33463 32.472 8.17196C32.3055 8.00929 32.1052 7.87976 31.8831 7.79124C31.6611 7.70272 31.422 7.65706 31.1804 7.65703H14.017ZM4.25077 13.5383C4.00203 13.537 3.75576 13.5841 3.52781 13.6766C3.29986 13.769 3.09527 13.9048 2.9272 14.0751C2.75913 14.2454 2.63131 14.4465 2.55195 14.6654C2.4726 14.8844 2.44347 15.1163 2.46644 15.3464L4.22988 36.074C4.3584 37.5834 5.43537 38.8945 6.9725 39.4058L20.0962 43.7742C20.097 43.7742 20.0978 43.7742 20.0985 43.7742C21.0047 44.0753 21.9953 44.0753 22.9015 43.7742L36.0252 39.4058C37.5633 38.8949 38.6392 37.584 38.7678 36.074L39.1762 31.2746C39.2001 31.0553 39.1767 30.8337 39.1072 30.6229C39.0377 30.4121 38.9235 30.2163 38.7714 30.047C38.6193 29.8778 38.4324 29.7384 38.2215 29.6372C38.0107 29.5359 37.7801 29.4748 37.5435 29.4574C37.3069 29.4401 37.0689 29.4668 36.8435 29.536C36.6181 29.6052 36.4099 29.7156 36.2311 29.8606C36.0523 30.0056 35.9064 30.1823 35.8021 30.3803C35.6978 30.5784 35.6372 30.7938 35.6238 31.0139L35.2154 35.8133C35.1966 36.0334 35.0481 36.2135 34.8256 36.2874C34.8248 36.2881 34.824 36.2888 34.8233 36.2895L21.6995 40.6579C21.5697 40.701 21.4279 40.701 21.2981 40.6579L8.17442 36.2895C8.17442 36.2888 8.17442 36.2881 8.17442 36.2874C7.9519 36.2135 7.80335 36.0334 7.78461 35.8133L6.01885 15.0856C5.98946 14.6678 5.79072 14.2759 5.46264 13.9888C5.13457 13.7017 4.70153 13.5407 4.25077 13.5383Z" />
</svg>
