<svg width="43" height="46" viewBox="0 0 43 46" fill="none" xmlns="http://www.w3.org/2000/svg">
    <path d="M19.9741 4V14.3185C19.0838 14.0365 17.1624 14.0021 16.2157 14.0021C9.09319 14.0021 2.5 16.6146 2.5 24.0041C2.5 32.8459 11.4302 34.0062 17.4083 34.0062C19.7688 34.0062 25.1056 33.8244 27.6713 33.2443V4H19.9741ZM32.8028 4V10.0012H40.5V4H32.8028ZM32.8028 14.0021V31.408C32.8028 34.4406 30.4372 37.5973 25.1056 39.4096L32.442 42C39.898 39.9996 40.5 33.4084 40.5 31.408V14.0021H32.8028ZM17.3332 19.1047C18.1542 19.1047 19.0761 19.222 19.9741 19.3821V28.7903C19.0761 28.9503 18.1542 29.0716 17.3332 29.0716C13.9721 29.0716 10.7134 28.245 10.7134 24.0041C10.7134 19.7632 13.9721 19.1047 17.3332 19.1047Z" />
</svg>
