<svg width="49" height="48" viewBox="0 0 49 48" fill="none" xmlns="http://www.w3.org/2000/svg">
<g clip-path="url(#clip0_65_892)">
<path d="M19.3495 8.64V13.44H9.74954V18.24H4.94954V23.04H1.22954C0.772037 23.0475 0.385786 23.3737 0.299536 23.82C0.299536 23.82 0.149536 24.6412 0.149536 25.68C0.149536 26.34 0.217036 27.0562 0.329536 27.78C0.273286 27.795 0.198286 27.8287 0.149536 27.84H0.329536C0.607037 29.5763 1.24454 31.425 2.30954 33.18C2.31329 33.1875 2.30579 33.2025 2.30954 33.21C2.31704 33.2287 2.32829 33.2512 2.33954 33.27C2.38829 33.4987 2.51579 33.7012 2.69954 33.84C2.71829 33.8512 2.74079 33.8625 2.75954 33.87C3.05579 34.2975 3.36704 34.725 3.71954 35.13C6.28829 38.0925 10.4583 40.32 16.4695 40.32C26.2833 40.32 34.582 36.1387 39.2695 27.84H47.9995C46.957 27.5775 44.7183 27.225 45.0895 25.86C43.8483 27.2962 41.4858 27.4762 39.6595 27.15C40.0083 26.49 40.3458 25.8187 40.6495 25.11C43.4245 25.0387 45.4158 24.1462 46.5295 23.07C47.7483 21.8925 48.1195 20.58 48.1195 20.58C48.2133 20.2125 48.0858 19.8262 47.7895 19.59C47.7895 19.59 45.3633 17.82 41.7295 18.42C40.6945 15.0262 38.0095 13.38 38.0095 13.38C37.8108 13.2637 37.5783 13.2187 37.3495 13.26C37.1958 13.2937 37.0495 13.365 36.9295 13.47C36.9295 13.47 36.2883 14.0175 35.7595 15C35.2308 15.9825 34.7433 17.4787 34.9195 19.41C35.002 20.3137 35.287 21.1725 35.6995 21.99C35.467 22.1325 35.332 22.2525 34.9495 22.41C34.1545 22.74 32.9958 23.04 31.3495 23.04H30.8695V18.24H26.0695V8.64H19.3495ZM21.2695 10.56H24.1495V13.44H21.2695V10.56ZM11.6695 15.36H14.5495V18.24H11.6695V15.36ZM16.4695 15.36H19.3495V18.24H16.4695V15.36ZM21.2695 15.36H24.1495V18.24H21.2695V15.36ZM37.6795 15.57C38.392 16.0987 39.682 17.205 40.1395 19.62C40.1883 19.8862 40.3458 20.115 40.5745 20.2575C40.8033 20.4 41.0808 20.4412 41.3395 20.37C43.7883 19.6987 45.112 20.25 45.8395 20.67C45.7008 20.9737 45.7233 21.1612 45.1795 21.69C44.3058 22.5337 42.8245 23.385 40.0495 23.28C39.6445 23.265 39.2733 23.505 39.1195 23.88C38.737 24.8362 38.2945 25.7212 37.8295 26.58C37.687 26.4975 37.567 26.4 37.4695 26.31C36.1833 28.1737 28.7208 27.4612 28.1995 26.01C26.5908 27.9 21.592 27.9 19.9795 26.01C19.4583 27.4612 11.9658 28.1737 10.6795 26.31C9.52829 27.39 4.98329 28.0537 3.08954 25.86C3.26954 26.52 2.80454 26.9475 2.18954 27.24C2.11079 26.6925 2.06954 26.1712 2.06954 25.68C2.06954 25.2675 2.09954 25.23 2.12954 24.96H31.3495C33.2395 24.96 34.657 24.6 35.6695 24.18C36.682 23.76 37.402 23.25 37.4995 23.19C37.732 23.0437 37.8895 22.8075 37.9345 22.5375C37.9795 22.2712 37.9083 21.9937 37.7395 21.78C37.207 21.0862 36.9295 20.2162 36.8395 19.23C36.7008 17.6812 37.0645 16.5975 37.4395 15.9C37.567 15.6637 37.5745 15.7125 37.6795 15.57ZM6.86954 20.16H9.74954V23.04H6.86954V20.16ZM11.6695 20.16H14.5495V23.04H11.6695V20.16ZM16.4695 20.16H19.3495V23.04H16.4695V20.16ZM21.2695 20.16H24.1495V23.04H21.2695V20.16ZM26.0695 20.16H28.9495V23.04H26.0695V20.16ZM2.30954 27.84H37.1095C32.7033 34.9575 25.387 38.4 16.4695 38.4C11.2195 38.4 7.81454 36.6187 5.57954 34.26C9.83954 34.4625 13.1395 33.33 13.1395 33.33C13.6683 33.2625 14.047 32.7787 13.9795 32.25C13.912 31.7212 13.4283 31.3425 12.8995 31.41C12.847 31.4175 12.7983 31.425 12.7495 31.44C12.667 31.4512 12.5883 31.47 12.5095 31.5C12.5095 31.5 8.58329 32.8387 3.98954 32.19C3.12704 30.7687 2.58329 29.2462 2.30954 27.84ZM15.5095 29.76C14.9808 29.76 14.5495 30.1912 14.5495 30.72C14.5495 31.2487 14.9808 31.68 15.5095 31.68C16.0383 31.68 16.4695 31.2487 16.4695 30.72C16.4695 30.5887 16.4583 30.4725 16.4095 30.36C16.342 30.48 16.1958 30.57 16.0495 30.57C15.832 30.57 15.6595 30.3675 15.6595 30.15C15.6595 30.0037 15.7533 29.8875 15.8695 29.82C15.7608 29.7787 15.6333 29.76 15.5095 29.76Z" />
</g>
<defs>
<clipPath id="clip0_65_892">
<rect width="48" height="48" fill="none" transform="translate(0.149536)"/>
</clipPath>
</defs>
</svg>
