<svg width="49" height="44" viewBox="0 0 49 44" fill="none" xmlns="http://www.w3.org/2000/svg">
<g clip-path="url(#clip0_65_886)">
<path d="M47.5137 37.1521C45.8037 37.6622 44.7462 37.1741 43.7975 35.503C41.6675 31.7606 39.3162 28.1898 37.0475 24.553C36.755 24.0825 36.4513 23.6207 36.0725 23.0358C33.3875 27.2839 30.7062 31.3297 28.19 35.5382C27.29 37.0421 26.345 37.6974 24.665 37.1653L34.76 21.2768L25.3625 6.92749C26.9787 6.55809 28.0962 6.74719 29.0862 8.44465C31.2725 12.1914 33.6837 15.7578 36.0875 19.531C38.5062 15.771 40.8875 12.2002 43.1375 8.48863C44.0412 6.98465 45.0125 6.41297 46.6362 6.96707C45.4062 8.88001 44.2025 10.7622 42.9912 12.6312C41.3562 15.151 39.7512 17.7016 38.0562 20.1686C37.4525 21.0481 37.55 21.6198 38.09 22.451C41.225 27.2839 44.3225 32.1652 47.5137 37.1521ZM0.51125 21.0129C0.78125 19.4254 0.96125 17.8071 1.33625 16.2504C3.58625 6.82634 12.8112 2.9081 19.1487 8.74809C22.8612 12.1738 23.7838 17.0023 23.6 22.4466H2.675C2.36 32.2136 8.35625 38.1107 15.9988 35.1028C18.68 34.0474 20.2587 31.5847 21.05 28.5064C21.4512 26.9629 22.115 26.721 23.3525 27.1608C22.7188 31.013 21.2825 34.2321 18.2825 36.2462C13.7825 39.2629 7.35875 38.2866 3.98 34.0957C1.985 31.6331 1.1375 28.568 0.7625 25.2566C0.70625 24.7289 0.59 24.21 0.5 23.6867C0.5075 22.7954 0.51125 21.9042 0.51125 21.0129ZM2.7125 20.3577H21.6238C21.5 13.2952 17.75 8.27754 12.6238 8.23357C6.99875 8.1808 2.95625 13.0797 2.7125 20.3577Z" />
</g>
<defs>
<clipPath id="clip0_65_886">
<rect width="48" height="44" fill="none" transform="translate(0.5)"/>
</clipPath>
</defs>
</svg>
