<svg width="47" height="44" viewBox="0 0 47 44" fill="none" xmlns="http://www.w3.org/2000/svg">
<path d="M14.9475 39.182C13.3612 37.7033 11.67 36.2868 10.5112 34.293C8.07746 30.7761 6.20246 26.6997 4.92371 22.419C4.14746 19.6348 3.88496 16.6508 2.88371 13.9731C1.84121 12.0282 3.06371 9.90559 4.85996 9.28836C5.65871 9.1063 7.06871 8.20931 5.36996 8.85319C3.84746 10.1765 3.70121 7.6498 5.26121 7.48994C6.32621 7.3212 6.71996 6.291 6.35621 5.35849C5.21246 4.47482 9.13121 3.50234 7.15871 2.1835C5.10371 -0.44085 10.0312 -0.94707 8.81621 2.03697C8.52746 4.32828 12.2587 1.61512 11.3925 4.26167C12.2737 5.53167 14.6925 4.55031 14.6287 6.3354C15.9112 6.44198 16.3537 7.71641 17.5537 7.8141C18.8025 8.48018 21.0637 9.0086 21.4875 10.6738C20.25 11.8328 17.3812 8.27592 17.2462 11.4909C17.6212 16.2378 17.5237 21.1268 18.99 25.6473C19.6837 28.3826 21.3637 30.5363 22.8825 32.6678C24.3375 34.7548 26.3025 36.2246 28.3125 37.4635C30.0712 38.4449 31.9687 39.0977 33.8887 39.5062C34.665 38.8001 36.0412 36.1847 37.2525 37.2859C37.3125 38.5293 34.845 39.8792 37.1362 39.746C38.4825 39.2664 39.4162 40.976 40.5262 39.4307C41.5462 40.865 44.7712 38.5159 44.0437 41.4423C43.0612 42.1927 41.6287 41.7398 40.6425 42.7744C39.0187 41.8153 37.7287 43.6314 35.9325 43.405C33.9375 43.8268 31.9087 44 29.8837 44C26.565 43.6892 23.175 43.5604 20.0212 42.1927C18.2437 41.5799 16.5075 40.381 14.9475 39.182ZM17.7487 40.6208C19.485 41.5089 21.1837 42.4458 23.085 42.73C26.1037 43.2273 29.2237 43.9911 32.2537 43.294C30.8812 42.5613 29.4637 43.5781 28.0987 42.77C26.46 43.1874 24.7012 42.6634 23.0362 42.4058C21.1425 41.4067 19.0987 40.7184 17.325 39.4218C15.1087 38.4627 18.4725 40.6518 19.0687 40.8295C20.4525 41.762 17.5462 40.3499 17.1337 39.9636C15.975 39.1909 15.825 39.3552 17.0175 40.1367C17.2575 40.301 17.4975 40.4787 17.7487 40.6208ZM14.445 37.8543C16.1287 38.5914 14.4375 36.4511 13.6687 36.5754C13.3275 35.8738 12.3637 35.4298 13.0425 35.0523C11.82 35.5541 11.76 33.1429 11.1862 33.4848C9.89246 33.0008 10.6837 31.2868 9.14246 30.2343C9.00371 29.1242 7.61246 28.1651 7.16996 26.491C6.97496 25.634 5.59871 23.1783 6.44246 25.4652C7.16246 27.6677 8.42621 29.5549 9.47996 31.4377C10.2975 33.2317 11.265 35.1056 12.75 36.2246C13.2525 36.8019 13.7362 37.6767 14.445 37.8543ZM9.59621 31.5532C9.90371 32.2015 9.65621 31.2512 9.59621 31.5532ZM16.4587 38.738C16.8337 38.5426 15.9225 38.4893 16.4587 38.738ZM17.3737 39.1332C17.28 38.587 16.9575 39.4396 17.3737 39.1332ZM18.5175 39.6971C19.0612 39.0843 17.6775 39.3108 18.5175 39.6971ZM20.475 40.9893C20.8087 40.412 19.4175 40.7717 20.475 40.9893ZM16.7137 37.8854C17.5575 37.2371 15.6225 37.8765 16.7137 37.8854ZM17.5725 38.3916C17.5462 38.0497 17.265 38.5426 17.5725 38.3916ZM21.8587 41.5577C22.5487 42.0728 25.8825 42.6856 23.7937 41.7709C23.445 41.8597 19.92 40.5897 21.8587 41.5577ZM15.0525 35.2832C14.985 34.9413 13.9837 34.9058 15.0525 35.2832ZM17.0475 36.6598C17.5687 36.2335 15.9712 36.3312 17.0475 36.6598ZM18.7275 37.8809C19.47 37.5479 17.5162 37.5479 18.7275 37.8809ZM14.2387 34.2353C15.0487 34.968 17.5012 34.3285 15.4762 33.7957C14.5575 33.2139 12.48 32.8187 13.8937 34.1465L14.2387 34.2353ZM19.8637 38.3028C20.2012 37.6234 18.45 37.912 19.8637 38.3028ZM18.1537 36.6909C20.13 37.3525 16.4925 35.2077 17.6662 36.4467L17.9287 36.5888L18.1537 36.6909ZM21.5812 39.0355C23.4525 39.0577 19.89 38.7335 21.5812 39.0355ZM13.5187 32.952C13.4475 32.539 13.0575 32.9875 13.5187 32.952ZM24.7462 41.1403C24.7987 40.3943 24.1387 41.6954 24.7462 41.1403ZM16.7137 35.2699C16.6012 34.8791 16.1287 35.2521 16.7137 35.2699ZM13.6987 32.6944C14.7712 32.6189 12.225 32.1349 13.6987 32.6944ZM10.1212 29.959C9.98621 29.3462 8.95121 28.8622 10.1212 29.959ZM19.5075 37.0106C19.4137 37.0683 19.3125 36.7442 19.5075 37.0106ZM25.35 41.2558C25.3312 40.8517 25.0312 41.4112 25.35 41.2558ZM18.99 36.38C19.095 35.8561 18.075 36.2202 18.99 36.38ZM14.64 33.1118C15.4387 33.0097 13.3575 32.4724 14.64 33.1118ZM22.0012 38.5293C23.2462 37.9431 20.7862 38.2451 22.0012 38.5293ZM18.1725 35.452C19.6087 35.6696 16.4625 34.293 17.8575 35.3276L18.1725 35.452ZM23.1637 39.0888C24.5062 38.1385 24.0637 41.3135 25.44 39.3552C26.7975 38.1829 24.2662 40.8073 25.9387 39.5639C27.15 38.6048 28.935 40.0168 30.0637 40.4787C30.8737 40.4298 31.665 41.309 32.4975 40.7762C34.0987 40.2655 29.3625 40.0168 30.6037 39.111C29.1375 39.6172 28.0537 38.5071 27.3337 37.3969C25.6875 36.9484 23.7862 35.9538 22.965 34.2264C22.6312 33.5781 23.4487 34.3196 22.6762 33.2584C21.6862 32.2148 21.1912 31.0292 20.5275 29.7592C19.7325 29.2574 19.6387 27.7787 19.56 29.7104C19.5675 28.4937 18.6 27.6722 18.3637 28.0141C18.36 26.8418 19.3987 27.4279 18.6712 26.562C18.5137 25.3453 18 24.0798 17.8462 22.7076C17.6062 22.046 17.8125 20.6295 17.025 22.1259C16.74 23.7112 16.9312 20.181 17.3775 21.3444C17.9625 20.1588 17.1675 20.2964 17.1337 20.4607C17.5162 19.4572 17.3737 18.0362 17.0325 18.578C17.235 17.5167 17.355 14.6703 16.7287 15.1765C17.1075 14.0664 17.4487 10.0965 15.8025 11.6108C15.135 11.6241 13.9837 11.8949 13.4362 12.2191C15.1462 13.3337 13.2637 12.6232 12.5662 12.4456C12.4762 13.4802 11.7862 13.0317 10.9237 13.0406C12.3 13.2404 10.2525 14.7058 9.46496 14.1374C8.43746 14.7191 10.35 16.1667 9.48371 16.6152C9.58871 17.2902 7.91246 16.371 8.04371 17.9296C7.04996 17.4323 7.90871 19.7769 8.40371 18.9865C10.095 19.5282 9.59621 20.7671 9.63746 21.9394C9.35996 22.6233 8.27621 20.332 9.39746 20.4385C8.51246 18.7378 8.41871 19.8257 7.68746 20.6117C7.51871 20.6694 9.55871 21.7352 8.27621 22.2636C9.40496 22.4723 9.43871 23.6402 9.66746 24.3773C10.3462 25.2121 10.2075 23.4537 11.0175 24.4572C10.5037 23.5602 8.29871 21.935 10.0725 22.4545C10.0612 21.5531 9.74996 20.8249 10.2975 20.8426C10.8375 19.6881 9.73121 23.6934 10.9462 22.2236C11.2837 22.0504 11.3662 21.0691 11.97 22.3169C12.8475 23.3382 12.2887 24.0798 11.0475 23.1428C11.2687 24.0354 12.705 24.3506 12.435 25.745C12.72 26.9706 13.1212 26.5176 13.47 26.4466C13.7437 27.6366 13.8975 26.7619 13.9125 26.1935C15.165 26.5132 14.8725 27.388 15.2625 28.0008C16.125 28.4626 14.0287 24.8746 15.51 26.9217C17.07 28.5869 16.095 29.2841 14.6962 29.0176C15.5812 28.9333 15.8662 30.4342 16.9725 30.3809C17.9812 30.9493 18.6675 33.134 16.9275 32.2237C16.3237 31.5798 14.1862 30.785 15.9337 32.0106C17.5462 32.8942 18.825 33.4227 20.3812 34.5328C21.4912 35.4742 21.975 36.5488 22.395 36.7619C21.4612 37.2904 19.5787 36.3401 20.9775 36.047C20.1037 35.8605 19.125 35.3365 19.9612 36.6243C20.67 37.3259 22.4775 37.2548 22.8037 37.3303C22.53 38.0452 22.0575 38.103 22.815 38.1563C21.9712 38.698 23.085 38.7824 23.1637 39.0888ZM21.4387 33.3161C20.925 32.6811 20.7937 31.491 21.3487 32.5257C21.63 32.6589 22.26 34.4706 21.4387 33.3161ZM27.06 37.5435C27.3787 37.5168 27.0675 37.8321 27.06 37.5435ZM20.6287 31.7575C20.8125 32.499 20.6062 30.7939 20.6287 31.7575ZM20.07 30.8649C20.8837 31.2868 19.4212 29.3906 20.07 30.8649ZM13.2975 25.332C13.6762 25.2121 13.485 26.1002 13.2975 25.332ZM18.6862 28.7912C18.96 29.6615 18.9187 27.7565 18.6862 28.7912ZM14.88 25.6562C15.4425 26.1935 14.6137 25.0833 14.88 25.6562ZM18.1462 26.8951C17.535 25.2743 18.5812 26.007 18.2812 27.1615L18.1462 26.8951ZM12.5137 22.4501C12.24 21.9172 11.79 20.3542 11.9325 19.879C12.0637 20.6561 13.3275 23.2227 12.5512 20.9403C11.6962 19.0309 13.575 21.562 13.77 22.0371C13.86 22.5123 13.2412 21.9084 13.6612 23.0185C12.8962 21.7529 13.2112 23.7201 12.5137 22.4501ZM10.7737 21.0291C11.1712 21.8773 10.845 19.7902 10.7737 21.0291ZM11.5537 21.3488C12.1875 22.6499 11.9287 20.4119 11.5537 21.3488ZM9.67121 19.6215C9.02246 18.8577 8.55371 18.1561 9.70121 19.1463C10.1437 19.1685 8.71871 17.5477 9.80621 18.6312C10.9537 18.8799 10.3725 20.8559 9.67121 19.6215ZM10.6612 19.5904C11.0362 19.1508 10.86 20.0256 10.6612 19.5904ZM11.2687 19.8213C11.9625 20.3542 10.6987 18.5557 11.2687 19.8213ZM10.0612 18.4536C8.17871 16.4687 12.4275 19.4927 10.3687 18.8222L10.0612 18.4536ZM15.4575 22.1659C14.64 21.5886 15.24 18.0895 15.5175 20.4829C16.3087 20.181 15.4725 21.7174 16.065 21.7041C15.975 22.6721 15.7087 23.0229 15.4575 22.1659ZM17.4562 23.5647C17.625 24.284 17.535 22.5078 17.4562 23.5647ZM17.1075 23.1561C17.1975 22.7076 17.1187 23.689 17.1075 23.1561ZM10.4287 17.8009C9.21746 15.8248 13.9462 19.8035 11.205 18.3026C10.9162 18.2094 10.5712 18.1783 10.4287 17.8009ZM14.2762 20.2121C14.5312 20.4874 14.16 18.5469 14.2762 20.2121ZM17.1937 22.4323C17.4187 21.4821 17.2125 23.0584 17.1937 22.4323ZM10.6162 17.046C11.3362 16.8639 13.5975 18.5424 11.52 17.5255C11.2875 17.2191 10.7962 17.3568 10.6162 17.046ZM16.7925 20.6916C16.8675 18.9865 17.2237 19.6748 16.7962 20.9359L16.7925 20.6916ZM11.1487 16.4509C11.4412 15.9403 10.3687 14.1507 11.3025 15.8071C11.7075 16.1845 12.4687 16.4421 11.7937 16.6019C12.8587 17.712 11.5387 16.9039 11.1487 16.4509ZM16.4887 20.1588C16.6912 18.2183 16.665 21.2956 16.4887 20.1588ZM10.5375 14.6614C10.7625 14.5459 10.6575 15.0122 10.5375 14.6614ZM11.9287 15.6428C12.5925 16.633 12.2887 14.7502 11.9287 15.6428ZM15.855 18.2271C15.93 18.7245 15.855 17.8852 15.855 18.2271ZM15.63 17.6321C16.1362 18.4758 15.0862 16.038 15.63 17.6321ZM15.2962 16.5886C15.6075 17.4145 15.2025 15.9314 15.2962 16.5886ZM15.84 15.5406C15.465 14.7591 16.3125 12.0992 16.4062 13.7511C16.0125 15.0344 16.2937 15.7538 16.5675 14.0308C17.0775 12.672 16.4587 16.704 15.84 15.5406ZM16.3987 11.5841C16.5637 11.3488 16.4362 11.8727 16.3987 11.5841ZM15.465 33.396C15.4912 33.5425 15.2437 33.1651 15.465 33.396ZM17.3887 34.5505C18.4612 34.8791 18.4537 34.3552 17.4862 34.1997C16.965 33.6269 15.3225 33.0186 16.7925 34.1287C16.8937 34.4173 17.2012 34.4084 17.3887 34.5505ZM13.5862 31.5576C14.175 32.0816 15.81 33.0319 14.4262 31.7575C14.8912 31.118 13.5337 30.7761 13.9837 30.3454C12.8362 29.515 13.08 29.5905 13.8825 29.6171C12.5062 28.8889 14.0812 28.9422 14.0062 28.5692C13.4737 28.4448 11.37 27.459 12.6075 28.6491C11.3475 27.8897 12.3075 28.9333 11.925 28.8223C10.635 28.4049 13.0725 29.9857 11.7225 29.5905C12.4612 30.2832 13.71 31.3667 12.0337 30.3232C11.82 30.7006 13.2375 31.2734 13.5862 31.5576ZM15.6 32.9298C18.0487 33.8623 14.4 31.7841 15.6 32.9298ZM25.9125 40.3232C25.9425 39.746 25.575 40.8161 25.9125 40.3232ZM26.97 40.8517C27.5362 40.2033 26.9925 41.8863 27.9075 40.6918C27.9187 39.8392 27.8812 39.333 26.8575 40.3721C26.5762 40.5586 26.4487 41.3446 26.97 40.8517ZM10.1512 28.3427C9.97496 27.5345 8.93246 27.5389 10.1512 28.3427ZM11.28 29.2219C10.86 28.396 9.77996 28.4759 11.28 29.2219ZM17.7187 33.8179C18.3487 34.4795 20.6062 34.3019 18.48 33.8978C18.1687 33.3472 16.485 33.4804 17.7187 33.8179ZM26.5687 40.2877C27.5325 39.3286 25.6312 40.7184 26.5687 40.2877ZM28.5787 41.9263C28.5862 41.6199 28.1625 42.0595 28.5787 41.9263ZM28.5825 41.4955C29.655 40.1501 27.5437 41.5755 28.5825 41.4955ZM7.36496 25.5851C6.45371 24.0442 6.79871 23.3515 5.91746 22.0904C5.74871 21.1268 4.40621 18.9421 5.22371 21.2556C5.96996 22.61 6.19121 24.7059 7.36496 25.5851ZM28.245 41.0692C30.2175 39.5595 27.4387 40.412 28.245 41.0692ZM29.7487 41.7664C30.7387 40.7628 29.1262 41.5577 29.7487 41.7664ZM9.81371 26.6375C10.0987 26.1402 9.08621 26.5753 9.81371 26.6375ZM29.4375 41.2868C30.3937 40.5586 29.2162 40.6696 29.265 41.3534L29.4375 41.2868ZM16.47 31.6109C16.4362 31.118 15.9637 31.6509 16.47 31.6109ZM17.2725 32.1571C17.0137 31.5443 16.8787 32.2503 17.2725 32.1571ZM30.9712 41.7797C32.1975 40.7318 30.2287 41.5799 30.7162 41.9796L30.9712 41.7797ZM30.4987 41.5133C31.5 40.5231 29.4487 41.9529 30.4987 41.5133ZM32.895 43.4005C33.5662 42.8721 32.0812 43.2318 32.895 43.4005ZM10.4287 26.2778C11.325 26.5176 14.0137 28.8933 12.4275 26.4421C11.6137 26.1579 12.1012 23.8045 11.2725 24.2219C11.8275 25.3231 11.73 25.7894 10.56 25.0967C9.09371 24.2485 9.73496 25.5141 10.0237 25.8649C9.63371 25.9759 10.545 26.269 10.4287 26.2778ZM6.34121 22.4545C6.50246 21.6686 4.85996 18.125 5.56496 20.6783C5.81996 21.2156 5.79371 22.2281 6.34121 22.4545ZM13.845 27.9342C13.8225 27.8675 13.3837 27.4768 13.845 27.9342ZM14.9812 28.2494C14.9812 27.4146 13.725 27.9075 14.9812 28.2494ZM24.8437 35.6074C24.6562 35.039 24.1012 35.5985 24.8437 35.6074ZM25.3162 36.0204C25.2487 35.7006 25.0462 36.0825 25.3162 36.0204ZM29.2275 38.9334C29.6025 38.6048 28.7587 38.8934 29.2275 38.9334ZM8.38121 23.0718C9.45746 22.5789 7.22996 22.721 8.38121 23.0718ZM23.9775 34.706C23.9625 33.88 23.2912 34.9102 23.9775 34.706ZM7.95746 21.8995C8.64746 21.6242 7.31621 21.7174 7.95746 21.8995ZM9.95996 23.0496C9.94871 22.7787 9.74996 23.1517 9.95996 23.0496ZM34.4175 40.8073C35.3062 40.5941 37.3312 41.3446 37.6575 40.5275C36.5775 40.4964 33.9262 39.6261 33.8025 40.7318L34.0387 40.7762L34.4175 40.8073ZM10.5975 23.2405C10.6162 22.4057 10.05 23.2094 10.5975 23.2405ZM5.32871 18.911C5.08871 17.3213 4.41746 18.6712 5.32871 18.911ZM6.58496 19.284C6.59996 18.7733 5.43371 18.8266 6.58496 19.284ZM7.30121 19.7014C7.13996 19.9545 7.09496 19.506 7.30121 19.7014ZM11.8237 23.1339C12.0375 22.903 11.3175 22.9652 11.8237 23.1339ZM6.82496 18.76C6.70121 17.5566 5.36996 18.5824 6.82496 18.76ZM4.24871 16.7795C4.21121 16.2245 3.99746 16.9882 4.24871 16.7795ZM4.63121 16.4376C4.56746 15.7804 4.30121 16.522 4.63121 16.4376ZM6.74996 17.9341C7.64621 17.5167 5.11871 17.0726 6.56621 17.8541L6.74996 17.9341ZM35.0962 38.6669C35.67 38.0452 34.3687 38.476 35.0962 38.6669ZM38.52 40.7717C38.7487 39.968 37.9425 40.8739 38.52 40.7717ZM6.96371 16.6197C7.06121 15.8426 6.25496 16.7751 6.96371 16.6197ZM3.95246 14.2307C3.79121 13.1339 3.81371 11.2022 5.36246 11.855C3.29621 12.3434 6.79496 14.8968 6.35246 12.8807C7.22246 12.9296 8.05121 12.2724 7.59746 13.2715C9.31121 13.0495 10.4962 11.291 12.15 11.5353C13.44 11.331 14.8462 11.18 16.2337 10.5672C17.3737 10.4695 18.4725 9.01304 17.85 8.15158C16.2937 7.99616 14.6625 8.22707 12.945 8.63116C11.04 9.10185 9.30746 9.98996 7.38371 10.3763C5.50871 10.6738 7.75871 11.1978 7.22246 11.3132C6.24371 11.7129 8.38871 11.9882 7.09496 12.4101C6.29621 12.228 5.46371 11.9038 5.80496 10.9092C4.00871 11.1845 2.42996 12.0681 3.85121 14.2307H3.95246ZM8.27996 11.6196C8.69996 9.78126 10.5337 13.1294 8.96996 11.8639C8.78246 11.6951 8.47496 11.5619 8.27996 11.6196ZM8.36246 10.7271C8.96996 10.1942 8.68496 11.029 8.36246 10.7271ZM9.13496 10.7449C9.19121 9.90115 10.9012 11.1933 9.41621 11.0468L9.13496 10.7449ZM10.1887 10.2386C10.575 9.70577 10.3012 10.7138 10.1887 10.2386ZM10.4587 10.0255C11.1 9.11074 14.0925 9.44378 11.9025 9.93668C11.3175 9.41269 10.8675 10.2475 10.4587 10.0255ZM14.3662 9.315C16.3087 10.1987 14.2687 6.81942 14.3662 9.315ZM15.4762 9.30612C15.8812 8.04945 17.0512 8.7999 15.6637 9.05301C15.6937 9.18622 15.6225 9.70133 15.4762 9.30612ZM6.52871 15.9758C7.73996 15.0966 5.24246 15.212 6.52871 15.9758ZM7.42496 16.2689C7.84871 15.736 6.50246 16.0513 7.42496 16.2689ZM4.78496 14.053C5.47871 13.4225 3.96746 13.8133 4.78496 14.053ZM40.5412 40.5408C40.56 39.8081 40.0125 40.8694 40.5412 40.5408ZM36.9075 37.6056C37.0125 36.7619 36.4425 37.6767 36.9075 37.6056ZM41.5425 40.825C42.51 40.8295 44.475 40.4698 42.3675 40.4698C42.0375 40.5275 40.4437 40.5186 41.5425 40.825ZM8.21246 15.7538C8.99621 15.6916 9.43871 14.7324 8.05871 14.7857C5.92496 14.5237 9.94121 15.6516 7.78496 15.3275C7.49621 15.5539 8.19371 15.8159 8.21246 15.7538ZM8.90246 16.1667C8.81996 15.5717 8.65871 16.482 8.90246 16.1667ZM9.71996 13.5824C10.0575 13.085 9.24746 13.4491 9.71996 13.5824ZM7.11371 8.43133C8.51246 7.86739 10.4212 7.23683 11.0812 8.70665C10.41 7.75193 10.8112 6.8061 11.445 8.20931C12.3412 9.62584 12.7912 7.56543 12.2062 7.09029C12.87 8.06721 13.6275 8.52903 12.6525 7.15246C13.7137 5.64268 10.53 7.35229 9.80621 7.33452C9.46121 7.51658 6.21371 8.31144 7.11371 8.43133ZM7.93496 6.57519C8.73371 5.86471 10.6912 7.00148 9.43496 5.86915C9.31121 5.73593 6.67871 6.72617 7.93496 6.57519ZM10.8412 6.71729C11.775 6.74393 10.44 5.23415 11.55 5.91799C11.3662 5.21195 10.2562 5.07873 9.71246 4.79898C9.40496 5.44286 10.335 6.72617 10.8412 6.71729ZM8.44496 3.59115C8.76746 3.07605 7.87871 3.85759 8.44496 3.59115ZM9.62996 3.92863C11.1337 3.69329 9.24746 3.16486 9.32621 3.91087L9.62996 3.92863ZM7.41371 1.87711C6.35621 0.238552 9.40496 2.15242 8.32871 0.438376C7.42496 -0.414206 6.55496 1.39753 7.41371 1.87711ZM20.9925 10.5361C21.4762 9.51926 18.99 9.16402 20.6662 10.1765C20.8237 10.2386 20.7862 10.6072 20.9925 10.5361Z" />
</svg>
