<svg width="45" height="44" viewBox="0 0 45 44" fill="none" xmlns="http://www.w3.org/2000/svg">
    <path d="M8.61123 0C5.25772 0 2.50017 3.03333 2.50017 6.72222V27.5716C2.49704 27.8146 2.53784 28.0558 2.6202 28.2812C2.70256 28.5066 2.82482 28.7118 2.9799 28.8848C3.13497 29.0578 3.31975 29.1952 3.52351 29.289C3.72727 29.3828 3.94595 29.4311 4.16682 29.4311C4.38769 29.4311 4.60636 29.3828 4.81012 29.289C5.01388 29.1952 5.19867 29.0578 5.35374 28.8848C5.50882 28.7118 5.63108 28.5066 5.71344 28.2812C5.79579 28.0558 5.8366 27.8146 5.83347 27.5716V6.72222C5.83347 5.03333 7.07589 3.66667 8.61123 3.66667H36.3888C37.9241 3.66667 39.1665 5.03333 39.1665 6.72222V8.24284C39.1634 8.48578 39.2042 8.72698 39.2866 8.95242C39.3689 9.17786 39.4912 9.38305 39.6463 9.55606C39.8013 9.72907 39.9861 9.86645 40.1899 9.96022C40.3936 10.054 40.6123 10.1023 40.8332 10.1023C41.054 10.1023 41.2727 10.054 41.4765 9.96022C41.6802 9.86645 41.865 9.72907 42.0201 9.55606C42.1752 9.38305 42.2974 9.17786 42.3798 8.95242C42.4621 8.72698 42.503 8.48578 42.4998 8.24284V6.72222C42.4998 3.03333 39.7423 0 36.3888 0H8.61123ZM40.8071 13.5614C40.3655 13.569 39.9446 13.7691 39.637 14.1178C39.3294 14.4665 39.1602 14.9352 39.1665 15.421V37.2778C39.1665 38.9667 37.9241 40.3333 36.3888 40.3333H8.61123C7.07589 40.3333 5.83347 38.9667 5.83347 37.2778V35.1317C5.8366 34.8888 5.79579 34.6476 5.71344 34.4222C5.63108 34.1967 5.50882 33.9915 5.35374 33.8185C5.19867 33.6455 5.01388 33.5081 4.81012 33.4143C4.60636 33.3206 4.38769 33.2723 4.16682 33.2723C3.94595 33.2723 3.72727 33.3206 3.52351 33.4143C3.31975 33.5081 3.13497 33.6455 2.9799 33.8185C2.82482 33.9915 2.70256 34.1967 2.6202 34.4222C2.53784 34.6476 2.49704 34.8888 2.50017 35.1317V37.2778C2.50017 40.9667 5.25772 44 8.61123 44H36.3888C39.7423 44 42.4998 40.9667 42.4998 37.2778V15.421C42.503 15.1756 42.4614 14.932 42.3775 14.7047C42.2935 14.4773 42.1689 14.2708 42.011 14.0974C41.8532 13.924 41.6653 13.7872 41.4585 13.6951C41.2517 13.603 41.0302 13.5576 40.8071 13.5614ZM20.6728 20.0449V31.8542C20.6728 33.6667 20.0482 34.1315 18.9649 34.1315C17.8327 34.1315 17.0434 33.3567 16.5257 32.3459L13.8412 34.1315C14.6179 35.9416 16.5245 37.8889 19.1645 37.8889C22.0867 37.8889 24.0885 36.1794 24.0885 32.4247V20.0449H20.6728ZM31.3063 20.0449C28.3964 20.0449 26.5343 22.091 26.5343 24.7786C26.5343 27.6961 28.097 29.0772 30.447 30.1784L31.2629 30.5627C32.7485 31.2765 33.4808 31.712 33.4808 32.9403C33.4808 33.9658 32.7714 34.7092 31.4214 34.7092C29.8147 34.7092 29.056 33.5068 28.3572 32.2528L25.7964 34.1315C26.7531 36.2105 28.4718 37.8889 31.4973 37.8889C34.5917 37.8889 36.8944 36.1216 36.8944 32.895C36.8944 29.9017 35.3339 28.5702 32.565 27.2661L31.7491 26.8817C30.3513 26.2168 29.746 25.7826 29.746 24.707C29.746 23.838 30.3519 23.1721 31.3063 23.1721C32.2419 23.1721 32.8438 23.6058 33.4027 24.707L35.9396 22.9143C34.8662 20.8377 33.3774 20.0449 31.3063 20.0449Z" />
</svg>
