<svg viewBox="0 0 24 24" width="48px" height="48px" fill="none">
    <path d="M21.0189 1.91296C20.5908 1.91312 20.1631 2.01017 19.7681 2.20475L7.1073 8.43485C6.31974 8.82218 5.74707 9.55583 5.55269 10.4252L2.42427 24.4323C2.23094 25.2997 2.43468 26.2117 2.97766 26.9083L11.7424 38.1395C12.2879 38.8388 13.1183 39.2463 13.9943 39.2463H28.0434C28.9194 39.2463 29.7498 38.8388 30.2954 38.1395L39.0601 26.91V26.9083C39.603 26.2122 39.8081 25.3012 39.6151 24.4339V24.4323L36.4851 10.4252V10.4235C36.2907 9.55558 35.7184 8.82296 34.9304 8.43485L22.2712 2.20475L22.2696 2.20312C21.8746 2.00939 21.447 1.91281 21.0189 1.91296ZM21.0189 3.58215C21.2028 3.58221 21.3864 3.62384 21.5579 3.70766L34.2187 9.93776C34.5592 10.1055 34.8048 10.4196 34.8889 10.7952L38.0173 24.8023C38.1009 25.1781 38.0133 25.5698 37.779 25.87L29.0143 37.1011C28.7786 37.4033 28.422 37.5771 28.0434 37.5771H13.9943C13.6158 37.5771 13.2608 37.4033 13.0251 37.1011L4.26038 25.87C4.02541 25.5685 3.93701 25.1768 4.02047 24.8023L7.15049 10.7968C7.23454 10.4209 7.47981 10.1062 7.81904 9.93939V9.93776L20.4799 3.70766C20.6505 3.6236 20.8349 3.58209 21.0189 3.58215ZM21.0125 7.0933C20.8969 7.09356 20.7796 7.11704 20.667 7.16503C20.2166 7.36533 20.0034 7.89921 20.2 8.35823C20.3883 8.80891 20.4531 9.25887 20.5023 9.70955C20.5186 9.94324 20.528 10.1688 20.5199 10.3942C20.5444 10.6195 20.4293 10.8453 20.2656 11.0707C20.0936 11.296 20.0774 11.5218 20.0528 11.7471C17.8056 11.9719 15.7826 12.9756 14.2358 14.484L14.2214 14.4759C14.0331 14.3507 13.8539 14.225 13.5673 14.2167C13.297 14.2 13.0511 14.1505 12.8955 13.9836C12.7236 13.85 12.5521 13.7004 12.3965 13.5418C12.0771 13.2247 11.7731 12.882 11.552 12.4481C11.4456 12.2394 11.2489 12.0716 11.0114 11.9965C10.5365 11.863 10.0455 12.1384 9.90625 12.6225C9.76704 13.0982 10.0455 13.6072 10.5204 13.7407C10.979 13.8826 11.3641 14.1163 11.7408 14.3666C11.9209 14.4918 12.0934 14.6256 12.2654 14.7758C12.4537 14.901 12.5515 15.1347 12.6252 15.4017C12.6793 15.6692 12.8299 15.824 12.9771 15.9739C11.8562 17.6007 11.1922 19.5778 11.1922 21.7117C11.1922 22.0647 11.2114 22.4129 11.2465 22.7566C11.0628 22.8221 10.881 22.8932 10.7251 23.081C10.545 23.2896 10.3481 23.4555 10.127 23.4722C9.91406 23.5306 9.69392 23.5727 9.47281 23.5977C9.03061 23.6561 8.58009 23.6897 8.11333 23.5895C7.88404 23.5478 7.63031 23.5974 7.42558 23.7477C7.02433 24.0314 6.93444 24.5987 7.21286 25.0077C7.49948 25.4166 8.05594 25.5182 8.4572 25.2261C8.85026 24.9424 9.26771 24.7828 9.69353 24.6409C9.90644 24.5742 10.1202 24.5164 10.3413 24.4747C10.5542 24.3996 10.7912 24.4656 11.045 24.5741C11.256 24.6851 11.4427 24.6762 11.6272 24.6572C12.348 27.039 13.9241 29.0344 15.9824 30.294C15.912 30.4945 15.8461 30.7035 15.9088 30.9672C15.9579 31.2426 15.9659 31.5023 15.8512 31.6942C15.7611 31.9029 15.6634 32.1019 15.5569 32.3022C15.3276 32.6861 15.0824 33.0703 14.722 33.4042C14.5501 33.5627 14.4343 33.7877 14.4262 34.0464C14.4098 34.5471 14.7953 34.9654 15.2866 34.9821C15.778 34.9987 16.1963 34.6058 16.2127 34.1051C16.2209 33.6127 16.3516 33.1796 16.499 32.7456C16.5727 32.537 16.663 32.3281 16.7613 32.1278C16.835 31.9108 17.0308 31.7511 17.2683 31.6176C17.5048 31.4932 17.6112 31.3172 17.7177 31.1318C18.7514 31.5095 19.8596 31.7268 21.0189 31.7268C22.198 31.7268 23.3243 31.5023 24.3728 31.1123C24.4837 31.3052 24.5977 31.4886 24.835 31.6176C25.0725 31.7595 25.2683 31.9108 25.342 32.1278C25.4403 32.3365 25.5226 32.5451 25.5963 32.7538C25.7437 33.1877 25.8663 33.6208 25.8826 34.1132C25.8826 34.3553 25.9806 34.59 26.1689 34.7653C26.5374 35.0991 27.0951 35.0738 27.4309 34.7066C27.7584 34.331 27.7336 33.7626 27.3733 33.4205C27.013 33.095 26.7675 32.7026 26.5464 32.3104C26.4399 32.1184 26.3422 31.9108 26.2521 31.7105C26.1375 31.5102 26.1452 31.2589 26.2025 30.9835C26.268 30.6997 26.1945 30.4914 26.1289 30.2744L26.1225 30.2532C28.1644 28.981 29.7198 26.9796 30.4249 24.5985L30.4521 24.6002C30.6814 24.6169 30.9022 24.641 31.1479 24.4991C31.3935 24.3823 31.6403 24.315 31.8532 24.3818C32.0661 24.4151 32.2864 24.4651 32.4993 24.5236C32.9252 24.6488 33.352 24.7991 33.7533 25.0745C33.9498 25.1997 34.1954 25.2585 34.441 25.2C34.9242 25.0915 35.2272 24.6083 35.1208 24.1242C35.0143 23.6318 34.5387 23.3229 34.0556 23.4314C33.5806 23.5399 33.1385 23.5221 32.6881 23.4803C32.467 23.4553 32.2534 23.4228 32.0323 23.3727C31.8112 23.3561 31.6161 23.2063 31.4278 23.006C31.2394 22.7806 31.0265 22.7223 30.8136 22.6555L30.7992 22.6506C30.8276 22.3411 30.8456 22.0287 30.8456 21.7117C30.8456 19.6425 30.2257 17.7171 29.1662 16.119C29.3215 15.9524 29.4784 15.7942 29.5357 15.5109C29.6094 15.2439 29.7072 15.0102 29.8955 14.885C30.0593 14.7348 30.24 14.6012 30.4201 14.4677C30.7886 14.2173 31.1739 13.9753 31.6325 13.8418C31.8618 13.775 32.0568 13.6158 32.1715 13.3821C32.4008 12.9398 32.2298 12.3898 31.7876 12.1644C31.3536 11.9307 30.8124 12.105 30.5913 12.5556C30.3702 12.9896 30.0676 13.3323 29.7564 13.6494C29.5926 13.808 29.4293 13.9591 29.2574 14.1009C29.1018 14.2679 28.8559 14.3174 28.5856 14.334C28.299 14.3424 28.1182 14.4762 27.9299 14.6014C26.3683 13.0247 24.2924 11.978 21.9849 11.7471C21.9603 11.5218 21.9442 11.296 21.7722 11.0707C21.6084 10.8453 21.4933 10.6195 21.5179 10.3942C21.5097 10.1688 21.5191 9.94324 21.5355 9.70955C21.5846 9.25887 21.6494 8.80891 21.8378 8.35823C21.9278 8.14124 21.936 7.88304 21.8378 7.64101C21.6904 7.29674 21.3591 7.09252 21.0125 7.0933ZM19.8385 13.462L19.7985 13.7831C19.6839 14.6844 19.6021 15.5941 19.5202 16.4955C19.4711 16.9712 19.4298 17.4559 19.3971 17.9316C18.9958 17.6395 18.5946 17.33 18.1687 17.0546C17.4317 16.5455 16.6944 16.0358 15.9328 15.5517L15.6753 15.3887C16.827 14.3773 18.2584 13.6938 19.8385 13.462ZM22.1992 13.462C23.844 13.7033 25.3252 14.4374 26.5 15.5175L26.2265 15.6935C25.4731 16.1859 24.7451 16.6955 24.0081 17.2046C23.7133 17.4049 23.4261 17.6137 23.1477 17.8224C22.9266 17.981 22.6234 17.8386 22.6071 17.5632C22.5825 17.2043 22.5503 16.8544 22.5175 16.4955C22.4356 15.5941 22.3539 14.6844 22.2392 13.7831L22.1992 13.462ZM14.1255 17.2111L14.3862 17.4882C15.0085 18.1475 15.6395 18.7821 16.2783 19.4247C16.5485 19.7001 16.8187 19.9598 17.0971 20.2186C17.2937 20.4022 17.2199 20.727 16.966 20.8021C16.5647 20.9273 16.1629 21.0435 15.7616 21.177C14.9182 21.4608 14.0669 21.7289 13.2234 22.0377L12.8523 22.1698C12.8442 22.017 12.83 21.8665 12.83 21.7117C12.83 20.0506 13.3091 18.5096 14.1255 17.2111ZM28.0098 17.3757C28.7647 18.6397 29.2078 20.1196 29.2078 21.7117C29.2078 21.8511 29.1936 21.9864 29.187 22.1241L28.8959 22.0296C28.0443 21.7458 27.1935 21.5024 26.3337 21.252C25.7768 21.0851 25.2191 20.9359 24.6623 20.794C25.0799 20.385 25.515 19.9838 25.9162 19.5665C26.5468 18.9239 27.1766 18.2814 27.7907 17.6137L28.0098 17.3757ZM20.5119 20.0425H21.5099C21.6655 20.0425 21.8134 20.118 21.8953 20.2349L22.5335 21.0532C22.6236 21.1617 22.6572 21.3188 22.6327 21.4607L22.4023 22.4713C22.3778 22.6299 22.2711 22.7548 22.14 22.8299L21.2236 23.2635C21.0926 23.3386 20.9292 23.3386 20.7982 23.2635L19.8801 22.8299C19.7491 22.7548 19.6342 22.6299 19.6178 22.4713L19.3891 21.4607C19.3645 21.3188 19.3982 21.1617 19.4882 21.0532L20.1264 20.2349C20.2083 20.118 20.3563 20.0425 20.5119 20.0425ZM17.5546 24.0231C17.8084 23.9814 18.0143 24.2408 17.916 24.4828C17.7604 24.9001 17.6122 25.3093 17.473 25.7266C17.17 26.5862 16.875 27.4373 16.5965 28.3053L16.4846 28.6639C15.0271 27.6762 13.9077 26.2229 13.3114 24.5122L13.7464 24.4747C14.639 24.3912 15.5152 24.2816 16.4078 24.1731C16.7927 24.1314 17.1697 24.0732 17.5546 24.0231ZM24.6303 24.1405C25.0152 24.1822 25.3922 24.2245 25.7771 24.2579C26.6697 24.3413 27.5539 24.4244 28.4465 24.4828L28.7312 24.4991C28.1456 26.188 27.0508 27.6277 25.6235 28.6167L25.5308 28.3135C25.2605 27.4455 24.9665 26.586 24.6799 25.7347C24.5489 25.3508 24.4177 24.9757 24.2784 24.6002C24.1884 24.3581 24.3846 24.1071 24.6303 24.1405ZM21.0796 25.7869C21.1963 25.7869 21.3132 25.8468 21.3787 25.9678C21.5589 26.3183 21.7484 26.6607 21.9449 27.0029C22.3871 27.7874 22.8279 28.5807 23.3028 29.3486L23.4963 29.668C22.715 29.9194 21.8832 30.0576 21.0189 30.0576C20.1806 30.0576 19.3726 29.9279 18.6118 29.6909L18.8165 29.3567C19.2915 28.5889 19.7416 27.8037 20.192 27.0192C20.3967 26.677 20.5938 26.3267 20.7822 25.9678C20.8477 25.8468 20.963 25.7869 21.0796 25.7869Z"/>
</svg>
