<svg width="41" height="44" viewBox="0 0 41 44" fill="none" xmlns="http://www.w3.org/2000/svg">
<g clip-path="url(#clip0_65_894)">
<path d="M20.1489 2.18065e-07C19.6902 0.000182189 19.232 0.11457 18.8088 0.343885L5.24363 7.6865C4.39981 8.143 3.78624 9.00766 3.57797 10.0322L0.226093 26.5406C0.0189596 27.5629 0.237246 28.6377 0.819013 29.4588L10.2098 42.6955C10.7943 43.5198 11.684 44 12.6226 44H27.6752C28.6138 44 29.5035 43.5198 30.088 42.6955L39.4788 29.4608V29.4588C40.0604 28.6384 40.2802 27.5647 40.0734 26.5425V26.5406L36.7198 10.0322V10.0303C36.5116 9.00737 35.8983 8.14392 35.0541 7.6865L21.4907 0.343885L21.4889 0.341964C21.0657 0.113647 20.6076 -0.000181851 20.1489 2.18065e-07ZM20.1489 1.96725C20.346 1.96732 20.5426 2.01639 20.7264 2.11518L34.2916 9.4578C34.6564 9.65548 34.9195 10.0257 35.0096 10.4683L38.3615 26.9767C38.4511 27.4196 38.3572 27.8812 38.1061 28.2351L28.7154 41.4718C28.4629 41.8279 28.0808 42.0327 27.6752 42.0327H12.6226C12.217 42.0327 11.8366 41.8279 11.5841 41.4718L2.19335 28.2351C1.94161 27.8798 1.84688 27.4181 1.93631 26.9767L5.2899 10.4702C5.37995 10.0272 5.64274 9.65635 6.0062 9.45972V9.4578L19.5714 2.11518C19.7542 2.01611 19.9518 1.96718 20.1489 1.96725ZM20.142 6.1054C20.0182 6.10571 19.8925 6.13337 19.7719 6.18993C19.2893 6.426 19.0609 7.05522 19.2715 7.59621C19.4733 8.12737 19.5427 8.65768 19.5954 9.18884C19.6129 9.46426 19.623 9.73014 19.6142 9.99572C19.6405 10.2613 19.5172 10.5274 19.3418 10.793C19.1575 11.0586 19.1402 11.3247 19.1138 11.5903C16.7061 11.8552 14.5386 13.0381 12.8813 14.8159L12.8659 14.8063C12.6641 14.6587 12.4721 14.5106 12.165 14.5008C11.8755 14.4811 11.612 14.4228 11.4453 14.2261C11.261 14.0687 11.0773 13.8923 10.9106 13.7055C10.5685 13.3317 10.2427 12.9279 10.0058 12.4164C9.89178 12.1705 9.68107 11.9727 9.42663 11.8842C8.91775 11.7268 8.39166 12.0514 8.24251 12.6219C8.09335 13.1826 8.39166 13.7825 8.90054 13.9398C9.39188 14.107 9.80445 14.3825 10.2081 14.6776C10.4011 14.8251 10.5859 14.9827 10.7701 15.1598C10.9719 15.3073 11.0767 15.5827 11.1557 15.8975C11.2136 16.2128 11.375 16.3952 11.5327 16.5718C10.3317 18.4892 9.62027 20.8193 9.62027 23.3342C9.62027 23.7503 9.64087 24.1606 9.67854 24.5657C9.48171 24.6429 9.2869 24.7267 9.11989 24.948C8.92687 25.1939 8.71588 25.3894 8.47899 25.4091C8.25087 25.4779 8.015 25.5275 7.77811 25.557C7.30432 25.6259 6.82162 25.6654 6.32151 25.5474C6.07585 25.4982 5.80399 25.5567 5.58465 25.7337C5.15473 26.0682 5.05842 26.7368 5.35673 27.2188C5.66382 27.7008 6.26003 27.8205 6.68995 27.4762C7.11109 27.1418 7.55835 26.9538 8.01459 26.7865C8.24271 26.7078 8.47172 26.6398 8.70862 26.5906C8.93674 26.5021 9.19063 26.5799 9.46262 26.7078C9.68862 26.8385 9.88871 26.8281 10.0864 26.8057C10.8587 29.6128 12.5474 31.9645 14.7526 33.4491C14.6773 33.6854 14.6066 33.9317 14.6738 34.2425C14.7264 34.5671 14.7349 34.8731 14.6121 35.0993C14.5156 35.3452 14.4109 35.5798 14.2968 35.8159C14.0511 36.2684 13.7883 36.7212 13.4023 37.1146C13.218 37.3015 13.094 37.5666 13.0853 37.8715C13.0677 38.4617 13.4808 38.9546 14.0072 38.9743C14.5336 38.994 14.9818 38.5309 14.9994 37.9407C15.0082 37.3604 15.1482 36.85 15.3061 36.3385C15.3851 36.0926 15.4819 35.8464 15.5872 35.6104C15.6661 35.3546 15.876 35.1664 16.1304 35.009C16.3838 34.8624 16.4979 34.655 16.6119 34.4365C17.7194 34.8816 18.9068 35.1378 20.1489 35.1378C21.4122 35.1378 22.619 34.8731 23.7424 34.4135C23.8612 34.6408 23.9833 34.857 24.2376 35.009C24.4921 35.1763 24.7019 35.3546 24.7809 35.6104C24.8861 35.8563 24.9744 36.1022 25.0533 36.3481C25.2113 36.8596 25.3425 37.37 25.3601 37.9503C25.3601 38.2356 25.465 38.5122 25.6668 38.7188C26.0616 39.1122 26.6591 39.0824 27.0189 38.6496C27.3698 38.207 27.3432 37.5371 26.9572 37.1338C26.5711 36.7502 26.3081 36.2878 26.0712 35.8255C25.9572 35.5993 25.8524 35.3546 25.7559 35.1185C25.6331 34.8825 25.6414 34.5863 25.7028 34.2617C25.773 33.9273 25.6942 33.6818 25.624 33.426L25.6171 33.401C27.8048 31.9017 29.4713 29.5428 30.2268 26.7366L30.2559 26.7385C30.5016 26.7582 30.7382 26.7866 31.0014 26.6194C31.2646 26.4817 31.529 26.4024 31.7571 26.4811C31.9852 26.5204 32.2213 26.5794 32.4494 26.6482C32.9056 26.7958 33.363 26.973 33.7929 27.2976C34.0035 27.4451 34.2665 27.5143 34.5298 27.4455C35.0474 27.3176 35.3721 26.748 35.2581 26.1775C35.144 25.5972 34.6344 25.2332 34.1168 25.361C33.6079 25.4889 33.1342 25.4679 32.6516 25.4187C32.4147 25.3892 32.1859 25.3509 31.949 25.2919C31.7121 25.2722 31.5031 25.0957 31.3013 24.8596C31.0995 24.594 30.8713 24.5253 30.6432 24.4466L30.6278 24.4408C30.6583 24.076 30.6775 23.7078 30.6775 23.3342C30.6775 20.8955 30.0134 18.6263 28.8782 16.7428C29.0446 16.5464 29.2127 16.36 29.274 16.0262C29.353 15.7114 29.4578 15.436 29.6596 15.2885C29.8351 15.1114 30.0286 14.954 30.2217 14.7967C30.6165 14.5016 31.0293 14.2163 31.5206 14.0589C31.7663 13.9803 31.9753 13.7926 32.0981 13.5172C32.3438 12.9959 32.1606 12.3477 31.6868 12.0821C31.2218 11.8067 30.6419 12.012 30.405 12.5432C30.1681 13.0546 29.8439 13.4585 29.5105 13.8322C29.335 14.0191 29.1601 14.1972 28.9758 14.3644C28.8091 14.5611 28.5457 14.6195 28.2561 14.6391C27.949 14.649 27.7553 14.8067 27.5535 14.9542C25.8805 13.096 23.6562 11.8623 21.1839 11.5903C21.1576 11.3247 21.1403 11.0586 20.956 10.793C20.7805 10.5274 20.6572 10.2613 20.6835 9.99572C20.6748 9.73014 20.6848 9.46426 20.7024 9.18884C20.755 8.65768 20.8245 8.12737 21.0263 7.59621C21.1228 7.34047 21.1316 7.03616 21.0263 6.75091C20.8683 6.34516 20.5134 6.10448 20.142 6.1054ZM18.8842 13.6113L18.8414 13.9898C18.7185 15.0521 18.6309 16.1243 18.5432 17.1866C18.4906 17.7472 18.4463 18.3184 18.4112 18.8791C17.9813 18.5348 17.5514 18.1701 17.0952 17.8455C16.3055 17.2455 15.5155 16.6447 14.6995 16.0742L14.4236 15.8821C15.6576 14.6901 17.1913 13.8846 18.8842 13.6113ZM21.4135 13.6113C23.1758 13.8958 24.7629 14.7609 26.0215 16.0339L25.7285 16.2414C24.9213 16.8217 24.1413 17.4223 23.3517 18.0223C23.0358 18.2583 22.728 18.5045 22.4297 18.7504C22.1928 18.9373 21.8681 18.7695 21.8505 18.4449C21.8242 18.022 21.7897 17.6095 21.7546 17.1866C21.6668 16.1243 21.5792 15.0521 21.4564 13.9898L21.4135 13.6113ZM12.7631 18.03L13.0424 18.3565C13.7092 19.1336 14.3853 19.8815 15.0696 20.6389C15.3592 20.9635 15.6487 21.2695 15.947 21.5745C16.1576 21.7909 16.0785 22.1737 15.8065 22.2622C15.3766 22.4098 14.9461 22.5467 14.5161 22.7041C13.6124 23.0385 12.7003 23.3545 11.7966 23.7185L11.399 23.8741C11.3903 23.6941 11.375 23.5167 11.375 23.3342C11.375 21.3765 11.8884 19.5603 12.7631 18.03ZM27.6392 18.224C28.448 19.7137 28.9227 21.4579 28.9227 23.3342C28.9227 23.4985 28.9075 23.658 28.9004 23.8203L28.5886 23.7089C27.6761 23.3744 26.7646 23.0876 25.8433 22.7925C25.2467 22.5957 24.6492 22.4198 24.0526 22.2526C24.5 21.7707 24.9661 21.2978 25.396 20.806C26.0716 20.0486 26.7464 19.2914 27.4044 18.5045L27.6392 18.224ZM19.6057 21.367H20.675C20.8417 21.367 21.0002 21.456 21.088 21.5937L21.7717 22.5581C21.8682 22.686 21.9043 22.8712 21.8779 23.0384L21.6312 24.2295C21.6049 24.4164 21.4905 24.5636 21.3501 24.6521L20.3682 25.1632C20.2278 25.2517 20.0528 25.2517 19.9124 25.1632L18.9288 24.6521C18.7884 24.5636 18.6653 24.4164 18.6477 24.2295L18.4027 23.0384C18.3764 22.8712 18.4124 22.686 18.5089 22.5581L19.1927 21.5937C19.2804 21.456 19.439 21.367 19.6057 21.367ZM16.4371 26.0584C16.7091 26.0092 16.9297 26.3149 16.8244 26.6002C16.6577 27.092 16.4989 27.5742 16.3497 28.066C16.0251 29.0792 15.709 30.0823 15.4107 31.1053L15.2907 31.5279C13.7291 30.3639 12.5298 28.651 11.8908 26.6348L12.357 26.5906C13.3133 26.4922 14.2521 26.363 15.2085 26.2352C15.6208 26.186 16.0248 26.1174 16.4371 26.0584ZM24.0183 26.1967C24.4307 26.2459 24.8346 26.2957 25.247 26.3351C26.2033 26.4334 27.1507 26.5313 28.107 26.6002L28.4121 26.6194C27.7846 28.6099 26.6116 30.3066 25.0825 31.4722L24.9831 31.1149C24.6935 30.0919 24.3785 29.0789 24.0714 28.0756C23.931 27.6232 23.7904 27.1811 23.6413 26.7385C23.5448 26.4533 23.7551 26.1574 24.0183 26.1967ZM20.214 28.1371C20.339 28.1371 20.4643 28.2077 20.5345 28.3503C20.7275 28.7635 20.9305 29.167 21.1411 29.5703C21.6149 30.4949 22.0871 31.4299 22.596 32.3348L22.8033 32.7113C21.9662 33.0076 21.0749 33.1705 20.1489 33.1705C19.2507 33.1705 18.385 33.0176 17.5699 32.7382L17.7892 32.3444C18.2981 31.4395 18.7804 30.5141 19.2629 29.5895C19.4823 29.1862 19.6935 28.7733 19.8953 28.3503C19.9655 28.2077 20.089 28.1371 20.214 28.1371Z" />
</g>
<defs>
<clipPath id="clip0_65_894">
<rect width="40" height="44" fill="none" transform="translate(0.149536)"/>
</clipPath>
</defs>
</svg>
