<svg width="45" height="48" viewBox="0 0 45 48" fill="none" xmlns="http://www.w3.org/2000/svg">
    <path d="M22.5 2C18.9708 2 16.5761 2.92663 15.0543 4.27174C13.5326 5.61685 12.9348 7.34681 12.9348 8.78533V13.4783H21.6304V14.4348H8.66848C7.0788 14.4348 5.46535 15.1933 4.32065 16.7962C3.17595 18.3991 2.5 20.7904 2.5 24C2.5 27.2096 3.17595 29.6009 4.32065 31.2038C5.46535 32.8067 7.0788 33.5652 8.66848 33.5652H12.9348V39.2147C12.9348 40.6532 13.5326 42.3832 15.0543 43.7283C16.5761 45.0734 18.9708 46 22.5 46C26.0292 46 28.4239 45.0734 29.9457 43.7283C31.4674 42.3832 32.0652 40.6532 32.0652 39.2147V34.5217H23.3696V33.5652H36.3315C37.9212 33.5652 39.5346 32.8067 40.6793 31.2038C41.824 29.6009 42.5 27.2096 42.5 24C42.5 20.7904 41.824 18.3991 40.6793 16.7962C39.5346 15.1933 37.9212 14.4348 36.3315 14.4348H32.0652V8.78533C32.0652 7.30944 31.4708 5.57575 29.9457 4.24185C28.4205 2.90795 26.0258 2 22.5 2ZM22.5 3.91304C25.7575 3.91304 27.731 4.75 28.8587 5.73641C29.9864 6.72283 30.3261 7.86991 30.3261 8.78533V20.1739C30.3261 21.7582 29.1576 23.0435 27.7174 23.0435H17.2826C15.4925 23.0435 13.9504 24.2578 13.288 25.9728C13.176 26.2568 13.074 26.5594 13.0163 26.8696C12.9586 27.1797 12.9348 27.4973 12.9348 27.8261V31.6522H8.66848C7.56454 31.6522 6.54212 31.1776 5.70652 30.0082C4.87092 28.8387 4.23913 26.9107 4.23913 24C4.23913 21.0893 4.87092 19.1613 5.70652 17.9918C6.54212 16.8224 7.56454 16.3478 8.66848 16.3478H23.3696V11.5652H14.6739V8.78533C14.6739 7.92969 15.0102 6.76393 16.1413 5.7663C17.2724 4.76868 19.2459 3.91304 22.5 3.91304ZM18.1522 6.78261C17.1943 6.78261 16.413 7.64198 16.413 8.69565C16.413 9.74932 17.1943 10.6087 18.1522 10.6087C19.1101 10.6087 19.8913 9.74932 19.8913 8.69565C19.8913 7.64198 19.1101 6.78261 18.1522 6.78261ZM32.0652 16.3478H36.3315C37.4355 16.3478 38.4579 16.8224 39.2935 17.9918C40.1291 19.1613 40.7609 21.0893 40.7609 24C40.7609 26.9107 40.1291 28.8387 39.2935 30.0082C38.4579 31.1776 37.4355 31.6522 36.3315 31.6522H21.6304V36.4348H30.3261V39.2147C30.3261 40.0703 29.9898 41.2361 28.8587 42.2337C27.7276 43.2313 25.7541 44.087 22.5 44.087C19.2459 44.087 17.2724 43.2313 16.1413 42.2337C15.0102 41.2361 14.6739 40.0703 14.6739 39.2147V27.8261C14.6739 27.6281 14.6943 27.445 14.7283 27.2582C14.9728 25.9504 16.0224 24.9565 17.2826 24.9565H27.7174C30.1053 24.9565 32.0652 22.8006 32.0652 20.1739V16.3478ZM26.8478 37.3913C25.8899 37.3913 25.1087 38.2507 25.1087 39.3043C25.1087 40.358 25.8899 41.2174 26.8478 41.2174C27.8057 41.2174 28.587 40.358 28.587 39.3043C28.587 38.2507 27.8057 37.3913 26.8478 37.3913Z" />
</svg>
