<svg width="45" height="44" viewBox="0 0 45 44" fill="none" xmlns="http://www.w3.org/2000/svg">
    <path fill-rule="evenodd" clip-rule="evenodd" d="M30.8049 0.00334755C30.1272 -0.0241071 29.4178 0.118245 28.7066 0.396053C27.2842 0.95167 25.7936 2.03443 24.2639 3.53361C23.6644 4.12114 23.0594 4.79274 22.4525 5.50532C21.8589 4.81083 21.2664 4.15725 20.6801 3.5827C19.1516 2.08472 17.6651 1.00154 16.2459 0.447187C14.8266 -0.107172 13.4145 -0.124349 12.2547 0.682401C11.0949 1.48915 10.4013 2.97009 10.0902 4.72809C9.77905 6.48609 9.81332 8.57964 10.1258 10.9234C10.2344 11.7375 10.3892 12.5916 10.5655 13.4617C9.90282 13.7037 9.25925 13.9581 8.66247 14.2389C6.86141 15.0865 5.37114 16.1004 4.28593 17.3069C3.20071 18.5135 2.5 19.9779 2.5 21.5858C2.5 23.1937 3.20071 24.6561 4.28593 25.8626C5.37114 27.0692 6.86141 28.0851 8.66247 28.9327C9.30061 29.233 9.9915 29.5033 10.7047 29.759C10.4482 30.9139 10.2403 32.0346 10.0987 33.097C9.78591 35.4426 9.75288 37.5365 10.0647 39.2985C10.3766 41.0604 11.0705 42.5498 12.236 43.3605C13.4015 44.1712 14.82 44.1513 16.2425 43.5957C17.6649 43.0401 19.1538 41.9594 20.6835 40.4602C21.2775 39.8781 21.8783 39.214 22.4796 38.509C23.0841 39.2183 23.6873 39.8854 24.2842 40.4704C25.8127 41.9684 27.301 43.0495 28.7202 43.6039C30.1394 44.1583 31.5516 44.1754 32.7114 43.3687C33.8712 42.5619 34.563 41.081 34.8742 39.323C35.1853 37.565 35.151 35.4735 34.8385 33.1297C34.6965 32.0645 34.4885 30.94 34.2308 29.7815C34.9675 29.5196 35.6803 29.242 36.3375 28.9327C38.1386 28.0851 39.6289 27.0692 40.7141 25.8626C41.7993 24.6561 42.5 23.1937 42.5 21.5858C42.5 19.9779 41.7993 18.5135 40.7141 17.3069C39.6289 16.1004 38.1386 15.0865 36.3375 14.2389C35.7322 13.9541 35.0787 13.6963 34.4056 13.4515C34.5834 12.576 34.7412 11.7159 34.8504 10.8968C35.1632 8.55117 35.1962 6.45531 34.8843 4.69332C34.5725 2.93133 33.8769 1.44405 32.7114 0.633313C32.1286 0.227944 31.4826 0.0308022 30.8049 0.00334755ZM30.7251 2.13459C31.1504 2.1486 31.5132 2.27053 31.8235 2.48639C32.4441 2.91812 32.9029 3.75836 33.1477 5.14125C33.3924 6.52413 33.3839 8.39254 33.095 10.5594C32.9961 11.3012 32.8525 12.0875 32.6893 12.8931C30.9113 12.3776 28.9631 11.995 26.8867 11.7702C25.8444 10.0304 24.7733 8.44537 23.6934 7.03932C24.2646 6.36757 24.8321 5.73931 25.386 5.19647C26.7991 3.81161 28.1368 2.86928 29.2532 2.43321C29.8114 2.21518 30.2998 2.12058 30.7251 2.13459ZM14.2308 2.14073C14.6585 2.12634 15.1479 2.22069 15.7077 2.43935C16.8273 2.87668 18.1675 3.81858 19.5817 5.20465C20.1245 5.7366 20.6793 6.3529 21.2386 7.00864C20.1508 8.4262 19.0709 10.0249 18.0216 11.7804C15.954 12.0094 14.0137 12.394 12.2445 12.9115C12.0825 12.1104 11.9389 11.3282 11.8405 10.59C11.5513 8.42134 11.5441 6.55266 11.7895 5.16579C12.035 3.77892 12.4975 2.93233 13.1239 2.49662C13.4371 2.27876 13.803 2.15512 14.2308 2.14073ZM22.4796 8.54674C23.1877 9.47509 23.8959 10.491 24.5983 11.5841C23.9081 11.5494 23.2095 11.5288 22.5 11.5288C21.7764 11.5288 21.0644 11.5501 20.361 11.5861C21.0635 10.4922 21.7714 9.47579 22.4796 8.54674ZM22.5 13.6437C23.682 13.6437 24.8341 13.7023 25.9547 13.8012C26.7258 15.1355 27.4793 16.5511 28.1973 18.0494C28.8282 19.3659 29.3991 20.6804 29.9187 21.9785C29.3936 23.2938 28.8131 24.6261 28.1735 25.9608C27.6105 27.1357 27.0226 28.2515 26.425 29.3274C25.1591 29.4549 23.8475 29.5258 22.5 29.5258C21.12 29.5258 19.7789 29.4507 18.4851 29.3172C17.8974 28.2568 17.3194 27.1578 16.7653 26.0017C16.1272 24.6701 15.5495 23.3402 15.0253 22.0276C15.5517 20.7075 16.132 19.3703 16.7738 18.031C17.4881 16.5405 18.2394 15.1332 19.0062 13.8053C20.1389 13.7041 21.3044 13.6437 22.5 13.6437ZM28.1922 14.063C29.6251 14.2784 30.9704 14.5775 32.2224 14.9364C31.8509 16.4037 31.3933 17.9363 30.8389 19.518C30.4788 18.6818 30.106 17.8429 29.7031 17.0022C29.2149 15.9834 28.7064 15.0121 28.1922 14.063ZM16.7144 14.0794C16.2111 15.0107 15.7158 15.9631 15.2375 16.9613C14.8294 17.8128 14.4488 18.663 14.0848 19.5098C13.5351 17.9376 13.0802 16.4137 12.7114 14.9548C13.9541 14.5952 15.2916 14.2972 16.7144 14.0794ZM33.9422 15.4927C34.5583 15.7173 35.1534 15.9517 35.6992 16.2086C37.3595 16.9899 38.6728 17.915 39.524 18.8614C40.3752 19.8078 40.7446 20.7103 40.7446 21.5858C40.7446 22.4613 40.3752 23.3638 39.524 24.3102C38.6728 25.2566 37.3595 26.1817 35.6992 26.963C35.0927 27.2484 34.4262 27.5073 33.7333 27.7525C33.2391 25.9107 32.6082 23.9892 31.8574 22.0276C32.7207 19.7755 33.4181 17.5797 33.9422 15.4927ZM11.029 15.5029C11.5471 17.5691 12.2355 19.7431 13.0865 21.9724C12.3308 23.9454 11.6968 25.8778 11.2005 27.73C10.532 27.4912 9.88815 27.2394 9.30078 26.963C7.64048 26.1817 6.32717 25.2566 5.47598 24.3102C4.62479 23.3638 4.25537 22.4613 4.25537 21.5858C4.25537 20.7103 4.62479 19.8078 5.47598 18.8614C6.32717 17.915 7.64048 16.9899 9.30078 16.2086C9.83822 15.9557 10.4233 15.7246 11.029 15.5029ZM22.5 16.7752C20.1101 16.7752 18.154 19.1318 18.154 22.0112C18.154 24.8906 20.1101 27.2473 22.5 27.2473C24.8899 27.2473 26.846 24.8906 26.846 22.0112C26.846 19.1318 24.8899 16.7752 22.5 16.7752ZM14.1051 24.4881C14.4708 25.3391 14.8511 26.1931 15.2612 27.0489C15.5821 27.7185 15.9098 28.3703 16.2425 29.0104C15.0752 28.8154 13.9656 28.5685 12.9236 28.2761C13.2549 27.0534 13.6514 25.7841 14.1051 24.4881ZM30.8609 24.4881C31.3165 25.7872 31.7131 27.0585 32.0459 28.2843C31.0006 28.5763 29.8876 28.8224 28.7168 29.0165C29.0538 28.3686 29.3866 27.7087 29.7116 27.0305C30.1187 26.1809 30.4975 25.3329 30.8609 24.4881ZM12.4228 30.3092C13.9958 30.7582 15.7009 31.1031 17.5089 31.3278C18.7159 33.431 19.9732 35.3208 21.2386 36.9729C20.6728 37.6376 20.1119 38.2615 19.5631 38.7994C18.15 40.1843 16.8105 41.1245 15.6941 41.5606C14.5777 41.9967 13.7445 41.9391 13.1239 41.5074C12.5032 41.0757 12.0462 40.2355 11.8014 38.8526C11.5567 37.4697 11.5634 35.6033 11.8523 33.4365C11.9834 32.4535 12.1793 31.4009 12.4228 30.3092ZM32.5484 30.3174C32.7939 31.4158 32.9903 32.4722 33.1222 33.461C33.4114 35.6297 33.4186 37.4984 33.1731 38.8853C32.9277 40.2722 32.4685 41.1208 31.8422 41.5565C31.2158 41.9922 30.3746 42.0491 29.2549 41.6117C28.1353 41.1744 26.7952 40.2325 25.3809 38.8464C24.8281 38.3046 24.2634 37.6757 23.6934 37.0056C24.9674 35.3471 26.2336 33.4476 27.4486 31.3318C29.2612 31.1086 30.971 30.7658 32.5484 30.3174ZM19.777 31.5425C20.6694 31.6011 21.5736 31.6407 22.5 31.6407C23.3957 31.6407 24.2706 31.6035 25.1348 31.5487C24.2514 32.9846 23.351 34.29 22.4542 35.4655C21.5579 34.2875 20.6592 32.9797 19.777 31.5425Z" />
</svg>
