<svg width="43" height="42" viewBox="0 0 43 42" fill="none" xmlns="http://www.w3.org/2000/svg">
    <path d="M10.1875 22.75H13.2745C13.7575 22.75 14.1495 23.1437 14.1495 23.625C14.1495 24.108 14.5415 24.5 15.0245 24.5C15.5075 24.5 15.8995 24.108 15.8995 23.625C15.8995 22.1777 14.7218 21 13.2745 21H10.1875C8.51279 21 7.14954 22.3633 7.14954 24.038C7.14954 25.1948 7.79179 26.236 8.82779 26.7557L13.4355 29.0587C13.8765 29.2792 14.1495 29.7203 14.1495 30.212C14.1495 30.9225 13.572 31.5 12.8615 31.5H9.77454C9.29154 31.5 8.89954 31.1062 8.89954 30.625C8.89954 30.142 8.50754 29.75 8.02454 29.75C7.54154 29.75 7.14954 30.142 7.14954 30.625C7.14954 32.0723 8.32729 33.25 9.77454 33.25H12.8615C14.5363 33.25 15.8995 31.8868 15.8995 30.212C15.8995 29.0553 15.2573 28.014 14.2213 27.4943L9.61354 25.1913C9.17254 24.9708 8.89954 24.5298 8.89954 24.038C8.89954 23.3275 9.47704 22.75 10.1875 22.75Z" />
    <path d="M29.8995 31.5V21.875C29.8995 21.392 29.5075 21 29.0245 21C28.5415 21 28.1495 21.392 28.1495 21.875V32.375C28.1495 32.858 28.5415 33.25 29.0245 33.25H36.0245C36.5075 33.25 36.8995 32.858 36.8995 32.375C36.8995 31.892 36.5075 31.5 36.0245 31.5H29.8995Z" />
    <path d="M22.0245 21C19.613 21 17.6495 22.9618 17.6495 25.375V28.875C17.6495 31.2882 19.613 33.25 22.0245 33.25C22.9153 33.25 23.7413 32.9805 24.4343 32.522L24.9068 32.9945C25.0765 33.1643 25.3005 33.25 25.5245 33.25C25.7485 33.25 25.9725 33.1643 26.144 32.9945C26.4853 32.6532 26.4853 32.0985 26.144 31.7572L25.6715 31.2848C26.13 30.5918 26.3995 29.7657 26.3995 28.875V25.375C26.3995 22.9618 24.436 21 22.0245 21ZM23.9425 29.5557C23.6013 29.2145 23.0465 29.2145 22.7053 29.5557C22.364 29.897 22.364 30.4518 22.7053 30.793L23.1498 31.2375C22.8068 31.4003 22.4288 31.5 22.0245 31.5C20.5773 31.5 19.3995 30.3223 19.3995 28.875V25.375C19.3995 23.9277 20.5773 22.75 22.0245 22.75C23.4718 22.75 24.6495 23.9277 24.6495 25.375V28.875C24.6495 29.2793 24.5498 29.6572 24.387 30.0002L23.9425 29.5557Z" />
    <path d="M40.3995 18.375C40.3995 17.892 40.0075 17.5 39.5245 17.5H36.8995V2.625C36.8995 2.142 36.5075 1.75 36.0245 1.75H16.7745C16.736 1.75 16.701 1.7675 16.6625 1.77275C16.624 1.778 16.589 1.78325 16.5523 1.79375C16.4053 1.834 16.2653 1.897 16.155 2.0055L7.40504 10.7555C7.29654 10.8658 7.23354 11.0058 7.19329 11.1528C7.18279 11.1912 7.17579 11.2245 7.17229 11.263C7.16704 11.3015 7.14954 11.3365 7.14954 11.375V17.5H4.52454C4.04154 17.5 3.64954 17.892 3.64954 18.375V35.875C3.64954 36.358 4.04154 36.75 4.52454 36.75H7.14954V41.125C7.14954 41.608 7.54154 42 8.02454 42H36.0245C36.5075 42 36.8995 41.608 36.8995 41.125V36.75H39.5245C40.0075 36.75 40.3995 36.358 40.3995 35.875V18.375ZM15.8995 4.73725V10.5H10.1368L15.8995 4.73725ZM8.89954 12.25H16.7745C17.2575 12.25 17.6495 11.858 17.6495 11.375V3.5H35.1495V17.5H8.89954V12.25ZM35.1495 40.25H8.89954V36.75H35.1495V40.25ZM38.6495 35H5.39954V19.25H38.6495V35Z" />
</svg>
